SplineFontDB: 3.0
FontName: FdSymbolA-Book
FullName: FdSymbolA-Book
FamilyName: FdSymbolA
Weight: Book
Copyright: Copyright (c) 2012, Michael Ummels. This Font Software is licensed under the SIL Open Font License, Version 1.1.
Version: 1.008
ItalicAngle: 0
UnderlinePosition: -100
UnderlineWidth: 50
Ascent: 800
Descent: 200
InvalidEm: 0
LayerCount: 2
Layer: 0 0 "Back" 1
Layer: 1 0 "Fore" 0
UniqueID: 4178906
OS2Version: 0
OS2_WeightWidthSlopeOnly: 0
OS2_UseTypoMetrics: 0
CreationTime: 1431873013
ModificationTime: 1431873013
OS2TypoAscent: 0
OS2TypoAOffset: 1
OS2TypoDescent: 0
OS2TypoDOffset: 1
OS2TypoLinegap: 0
OS2WinAscent: 0
OS2WinAOffset: 1
OS2WinDescent: 0
OS2WinDOffset: 1
HheadAscent: 0
HheadAOffset: 1
HheadDescent: 0
HheadDOffset: 1
OS2Vendor: 'PfEd'
DEI: 91125
Encoding: Custom
UnicodeInterp: none
NameList: AGL For New Fonts
DisplaySize: -48
AntiAlias: 1
FitToEm: 0
BeginPrivate: 2
BlueValues 31 [-10 0 546 556 707 717 754 764]
OtherBlues 11 [-230 -220]
EndPrivate
BeginChars: 256 204

StartChar: dotmath
Encoding: 0 8901 0
Width: 330
Flags: W
HStem: 200 150<128.367 201.633>
VStem: 90 150<238.367 311.633>
LayerCount: 2
Back
Fore
SplineSet
240 275 m 0
 240 260 223 243 210 230 c 0
 197 217 180 200 165 200 c 0
 150 200 133 217 120 230 c 0
 107 243 90 260 90 275 c 0
 90 290 107 307 120 320 c 0
 133 333 150 350 165 350 c 0
 180 350 197 333 210 320 c 0
 223 307 240 290 240 275 c 0
EndSplineSet
EndChar

StartChar: sym000
Encoding: 1 -1 1
Width: 673
Flags: W
HStem: 200 150<128.367 201.633 470.852 544.139>
VStem: 90 150<238.367 311.633> 432 151<238.367 311.633>
LayerCount: 2
Back
Fore
SplineSet
240 275 m 0
 240 260 223 243 210 230 c 0
 197 217 180 200 165 200 c 0
 150 200 133 217 120 230 c 0
 107 243 90 260 90 275 c 0
 90 290 107 307 120 320 c 0
 133 333 150 350 165 350 c 0
 180 350 197 333 210 320 c 0
 223 307 240 290 240 275 c 0
583 275 m 0
 583 260 566 243 553 230 c 0
 539 217 522 200 507 200 c 0
 493 200 476 217 462 230 c 0
 449 243 432 260 432 275 c 0
 432 290 449 307 462 320 c 0
 476 333 493 350 507 350 c 0
 522 350 539 333 553 320 c 0
 566 307 583 290 583 275 c 0
EndSplineSet
EndChar

StartChar: uni2236
Encoding: 2 8758 2
Width: 330
Flags: W
HStem: 29 150<128.367 201.633> 371 150<128.367 201.633>
VStem: 90 150<67.3667 140.246 409.754 482.633>
LayerCount: 2
Back
Fore
SplineSet
240 104 m 0
 240 89 223 72 210 59 c 0
 197 45 180 29 165 29 c 0
 150 29 133 45 120 59 c 0
 107 72 90 89 90 104 c 0
 90 119 107 135 120 149 c 0
 133 162 150 179 165 179 c 0
 180 179 197 162 210 149 c 0
 223 135 240 119 240 104 c 0
240 446 m 0
 240 431 223 415 210 401 c 0
 197 388 180 371 165 371 c 0
 150 371 133 388 120 401 c 0
 107 415 90 431 90 446 c 0
 90 461 107 478 120 491 c 0
 133 505 150 521 165 521 c 0
 180 521 197 505 210 491 c 0
 223 478 240 461 240 446 c 0
EndSplineSet
EndChar

StartChar: sym001
Encoding: 3 -1 3
Width: 634
Flags: W
HStem: 79 150<159.367 232.633> 321 150<401.754 474.633>
VStem: 121 150<117.367 190.633> 363 150<359.367 432.633>
LayerCount: 2
Back
Fore
SplineSet
271 154 m 0
 271 139 254 122 241 109 c 0
 228 96 211 79 196 79 c 0
 181 79 164 96 151 109 c 0
 138 122 121 139 121 154 c 0
 121 169 138 186 151 199 c 0
 164 212 181 229 196 229 c 0
 211 229 228 212 241 199 c 0
 254 186 271 169 271 154 c 0
513 396 m 0
 513 381 497 364 483 351 c 0
 470 338 453 321 438 321 c 0
 423 321 407 338 393 351 c 0
 380 364 363 381 363 396 c 0
 363 411 380 428 393 441 c 0
 407 454 423 471 438 471 c 0
 453 471 470 454 483 441 c 0
 497 428 513 411 513 396 c 0
EndSplineSet
EndChar

StartChar: sym002
Encoding: 4 -1 4
Width: 634
Flags: W
HStem: 79 150<401.754 474.633> 321 150<159.367 232.633>
VStem: 121 150<359.367 432.633> 363 150<117.367 190.633>
LayerCount: 2
Back
Fore
SplineSet
513 154 m 0
 513 139 497 122 483 109 c 0
 470 96 453 79 438 79 c 0
 423 79 407 96 393 109 c 0
 380 122 363 139 363 154 c 0
 363 169 380 186 393 199 c 0
 407 212 423 229 438 229 c 0
 453 229 470 212 483 199 c 0
 497 186 513 169 513 154 c 0
271 396 m 0
 271 381 254 364 241 351 c 0
 228 338 211 321 196 321 c 0
 181 321 164 338 151 351 c 0
 138 364 121 381 121 396 c 0
 121 411 138 428 151 441 c 0
 164 454 181 471 196 471 c 0
 211 471 228 454 241 441 c 0
 254 428 271 411 271 396 c 0
EndSplineSet
EndChar

StartChar: uni22EF
Encoding: 5 8943 5
Width: 1015
Flags: W
HStem: 200 150<128.367 201.633 470.852 544.139 813.367 886.633>
VStem: 90 150<238.367 311.633> 432 151<238.367 311.633> 775 150<238.367 311.633>
CounterMasks: 1 70
LayerCount: 2
Back
Fore
SplineSet
240 275 m 0
 240 260 223 243 210 230 c 0
 197 217 180 200 165 200 c 0
 150 200 133 217 120 230 c 0
 107 243 90 260 90 275 c 0
 90 290 107 307 120 320 c 0
 133 333 150 350 165 350 c 0
 180 350 197 333 210 320 c 0
 223 307 240 290 240 275 c 0
583 275 m 0
 583 260 566 243 553 230 c 0
 539 217 522 200 507 200 c 0
 493 200 476 217 462 230 c 0
 449 243 432 260 432 275 c 0
 432 290 449 307 462 320 c 0
 476 333 493 350 507 350 c 0
 522 350 539 333 553 320 c 0
 566 307 583 290 583 275 c 0
925 275 m 0
 925 260 908 243 895 230 c 0
 882 217 865 200 850 200 c 0
 835 200 818 217 805 230 c 0
 792 243 775 260 775 275 c 0
 775 290 792 307 805 320 c 0
 818 333 835 350 850 350 c 0
 865 350 882 333 895 320 c 0
 908 307 925 290 925 275 c 0
EndSplineSet
EndChar

StartChar: uni22EE
Encoding: 6 8942 6
Width: 330
Flags: W
HStem: -142 150<128.367 201.633> 200 150<128.367 201.633> 542 150<128.367 201.633>
VStem: 90 150<-103.633 -30.8523 238.367 311.633 580.852 653.633>
CounterMasks: 1 e0
LayerCount: 2
Back
Fore
SplineSet
240 -67 m 0
 240 -82 223 -99 210 -112 c 0
 197 -126 180 -142 165 -142 c 0
 150 -142 133 -126 120 -112 c 0
 107 -99 90 -82 90 -67 c 0
 90 -53 107 -36 120 -22 c 0
 133 -9 150 8 165 8 c 0
 180 8 197 -9 210 -22 c 0
 223 -36 240 -53 240 -67 c 0
240 275 m 0
 240 260 223 243 210 230 c 0
 197 217 180 200 165 200 c 0
 150 200 133 217 120 230 c 0
 107 243 90 260 90 275 c 0
 90 290 107 307 120 320 c 0
 133 333 150 350 165 350 c 0
 180 350 197 333 210 320 c 0
 223 307 240 290 240 275 c 0
240 617 m 0
 240 603 223 586 210 572 c 0
 197 559 180 542 165 542 c 0
 150 542 133 559 120 572 c 0
 107 586 90 603 90 617 c 0
 90 632 107 649 120 662 c 0
 133 676 150 692 165 692 c 0
 180 692 197 676 210 662 c 0
 223 649 240 632 240 617 c 0
EndSplineSet
EndChar

StartChar: uni22F0
Encoding: 7 8944 7
Width: 877
Flags: W
HStem: -42 150<159.367 232.633> 200 150<401.754 474.633> 442 150<643.754 716.633>
VStem: 121 150<-3.63329 69.2463> 363 150<238.367 311.633> 605 150<480.754 553.633>
CounterMasks: 1 fc
LayerCount: 2
Back
Fore
SplineSet
271 33 m 0
 271 18 254 1 241 -12 c 0
 228 -26 211 -42 196 -42 c 0
 181 -42 164 -26 151 -12 c 0
 138 1 121 18 121 33 c 0
 121 48 138 64 151 78 c 0
 164 91 181 108 196 108 c 0
 211 108 228 91 241 78 c 0
 254 64 271 48 271 33 c 0
513 275 m 0
 513 260 497 243 483 230 c 0
 470 217 453 200 438 200 c 0
 423 200 407 217 393 230 c 0
 380 243 363 260 363 275 c 0
 363 290 380 307 393 320 c 0
 407 333 423 350 438 350 c 0
 453 350 470 333 483 320 c 0
 497 307 513 290 513 275 c 0
755 517 m 0
 755 502 739 486 725 472 c 0
 712 459 695 442 680 442 c 0
 665 442 649 459 635 472 c 0
 622 486 605 502 605 517 c 0
 605 532 622 549 635 562 c 0
 649 576 665 592 680 592 c 0
 695 592 712 576 725 562 c 0
 739 549 755 532 755 517 c 0
EndSplineSet
EndChar

StartChar: uni22F1
Encoding: 8 8945 8
Width: 877
Flags: W
HStem: -42 150<643.754 716.633> 200 150<401.754 474.633> 442 150<159.367 232.633>
VStem: 121 150<480.754 553.633> 363 150<238.367 311.633> 605 150<-3.63329 69.2463>
CounterMasks: 1 fc
LayerCount: 2
Back
Fore
SplineSet
755 33 m 0
 755 18 739 1 725 -12 c 0
 712 -26 695 -42 680 -42 c 0
 665 -42 649 -26 635 -12 c 0
 622 1 605 18 605 33 c 0
 605 48 622 64 635 78 c 0
 649 91 665 108 680 108 c 0
 695 108 712 91 725 78 c 0
 739 64 755 48 755 33 c 0
513 275 m 0
 513 260 497 243 483 230 c 0
 470 217 453 200 438 200 c 0
 423 200 407 217 393 230 c 0
 380 243 363 260 363 275 c 0
 363 290 380 307 393 320 c 0
 407 333 423 350 438 350 c 0
 453 350 470 333 483 320 c 0
 497 307 513 290 513 275 c 0
271 517 m 0
 271 502 254 486 241 472 c 0
 228 459 211 442 196 442 c 0
 181 442 164 459 151 472 c 0
 138 486 121 502 121 517 c 0
 121 532 138 549 151 562 c 0
 164 576 181 592 196 592 c 0
 211 592 228 576 241 562 c 0
 254 549 271 532 271 517 c 0
EndSplineSet
EndChar

StartChar: sym003
Encoding: 9 -1 9
Width: 720
Flags: W
HStem: 8 150<157.367 230.246> 200 150<489.754 562.633> 392 150<157.367 230.246>
VStem: 119 150<46.3667 119.246 430.754 503.633> 451 150<238.367 311.633>
CounterMasks: 1 e0
LayerCount: 2
Back
Fore
SplineSet
601 275 m 0
 601 260 585 243 571 230 c 0
 558 217 541 200 526 200 c 0
 511 200 495 217 481 230 c 0
 468 243 451 260 451 275 c 0
 451 290 468 307 481 320 c 0
 495 333 511 350 526 350 c 0
 541 350 558 333 571 320 c 0
 585 307 601 290 601 275 c 0
269 467 m 0
 269 452 252 436 239 422 c 0
 225 409 209 392 194 392 c 0
 179 392 162 409 149 422 c 0
 135 436 119 452 119 467 c 0
 119 482 135 499 149 512 c 0
 162 526 179 542 194 542 c 0
 209 542 225 526 239 512 c 0
 252 499 269 482 269 467 c 0
269 83 m 0
 269 68 252 51 239 38 c 0
 225 24 209 8 194 8 c 0
 179 8 162 24 149 38 c 0
 135 51 119 68 119 83 c 0
 119 98 135 114 149 128 c 0
 162 141 179 158 194 158 c 0
 209 158 225 141 239 128 c 0
 252 114 269 98 269 83 c 0
EndSplineSet
EndChar

StartChar: therefore
Encoding: 10 8756 10
Width: 720
Flags: W
HStem: 34 150<131.367 204.246 515.754 588.633> 366 150<323.367 396.633>
VStem: 93 150<72.3667 145.246> 285 150<404.754 477.633> 477 150<72.3667 145.246>
CounterMasks: 1 38
LayerCount: 2
Back
Fore
SplineSet
435 441 m 0
 435 426 418 410 405 396 c 0
 392 383 375 366 360 366 c 0
 345 366 328 383 315 396 c 0
 302 410 285 426 285 441 c 0
 285 456 302 473 315 486 c 0
 328 500 345 516 360 516 c 0
 375 516 392 500 405 486 c 0
 418 473 435 456 435 441 c 0
243 109 m 0
 243 94 226 77 213 64 c 0
 199 50 183 34 168 34 c 0
 153 34 136 50 123 64 c 0
 109 77 93 94 93 109 c 0
 93 124 109 140 123 154 c 0
 136 167 153 184 168 184 c 0
 183 184 199 167 213 154 c 0
 226 140 243 124 243 109 c 0
627 109 m 0
 627 94 611 77 597 64 c 0
 584 50 567 34 552 34 c 0
 537 34 521 50 507 64 c 0
 494 77 477 94 477 109 c 0
 477 124 494 140 507 154 c 0
 521 167 537 184 552 184 c 0
 567 184 584 167 597 154 c 0
 611 140 627 124 627 109 c 0
EndSplineSet
EndChar

StartChar: sym004
Encoding: 11 -1 11
Width: 720
Flags: W
HStem: 8 150<489.754 562.633> 200 150<157.367 230.246> 392 150<489.754 562.633>
VStem: 119 150<238.367 311.633> 451 150<46.3667 119.246 430.754 503.633>
CounterMasks: 1 e0
LayerCount: 2
Back
Fore
SplineSet
269 275 m 0
 269 260 252 243 239 230 c 0
 225 217 209 200 194 200 c 0
 179 200 162 217 149 230 c 0
 135 243 119 260 119 275 c 0
 119 290 135 307 149 320 c 0
 162 333 179 350 194 350 c 0
 209 350 225 333 239 320 c 0
 252 307 269 290 269 275 c 0
601 83 m 0
 601 68 585 51 571 38 c 0
 558 24 541 8 526 8 c 0
 511 8 495 24 481 38 c 0
 468 51 451 68 451 83 c 0
 451 98 468 114 481 128 c 0
 495 141 511 158 526 158 c 0
 541 158 558 141 571 128 c 0
 585 114 601 98 601 83 c 0
601 467 m 0
 601 452 585 436 571 422 c 0
 558 409 541 392 526 392 c 0
 511 392 495 409 481 422 c 0
 468 436 451 452 451 467 c 0
 451 482 468 499 481 512 c 0
 495 526 511 542 526 542 c 0
 541 542 558 526 571 512 c 0
 585 499 601 482 601 467 c 0
EndSplineSet
EndChar

StartChar: uni2235
Encoding: 12 8757 12
Width: 720
Flags: W
HStem: 34 150<323.367 396.633> 366 150<131.367 204.246 515.754 588.633>
VStem: 93 150<404.754 477.633> 285 150<72.3667 145.246> 477 150<404.754 477.633>
CounterMasks: 1 38
LayerCount: 2
Back
Fore
SplineSet
435 109 m 0
 435 94 418 77 405 64 c 0
 392 50 375 34 360 34 c 0
 345 34 328 50 315 64 c 0
 302 77 285 94 285 109 c 0
 285 124 302 140 315 154 c 0
 328 167 345 184 360 184 c 0
 375 184 392 167 405 154 c 0
 418 140 435 124 435 109 c 0
627 441 m 0
 627 426 611 410 597 396 c 0
 584 383 567 366 552 366 c 0
 537 366 521 383 507 396 c 0
 494 410 477 426 477 441 c 0
 477 456 494 473 507 486 c 0
 521 500 537 516 552 516 c 0
 567 516 584 500 597 486 c 0
 611 473 627 456 627 441 c 0
243 441 m 0
 243 426 226 410 213 396 c 0
 199 383 183 366 168 366 c 0
 153 366 136 383 123 396 c 0
 109 410 93 426 93 441 c 0
 93 456 109 473 123 486 c 0
 136 500 153 516 168 516 c 0
 183 516 199 500 213 486 c 0
 226 473 243 456 243 441 c 0
EndSplineSet
EndChar

StartChar: uni2237
Encoding: 13 8759 13
Width: 720
Flags: W
HStem: 5 150<128.367 201.633 518.367 591.633> 395 150<128.367 201.633 518.367 591.633>
VStem: 90 150<43.3667 116.633 433.367 506.633> 480 150<43.3667 116.633 433.367 506.633>
LayerCount: 2
Back
Fore
SplineSet
630 470 m 0
 630 455 613 438 600 425 c 0
 587 412 570 395 555 395 c 0
 540 395 523 412 510 425 c 0
 497 438 480 455 480 470 c 0
 480 485 497 502 510 515 c 0
 523 528 540 545 555 545 c 0
 570 545 587 528 600 515 c 0
 613 502 630 485 630 470 c 0
240 470 m 0
 240 455 223 438 210 425 c 0
 197 412 180 395 165 395 c 0
 150 395 133 412 120 425 c 0
 107 438 90 455 90 470 c 0
 90 485 107 502 120 515 c 0
 133 528 150 545 165 545 c 0
 180 545 197 528 210 515 c 0
 223 502 240 485 240 470 c 0
240 80 m 0
 240 65 223 48 210 35 c 0
 197 22 180 5 165 5 c 0
 150 5 133 22 120 35 c 0
 107 48 90 65 90 80 c 0
 90 95 107 112 120 125 c 0
 133 138 150 155 165 155 c 0
 180 155 197 138 210 125 c 0
 223 112 240 95 240 80 c 0
630 80 m 0
 630 65 613 48 600 35 c 0
 587 22 570 5 555 5 c 0
 540 5 523 22 510 35 c 0
 497 48 480 65 480 80 c 0
 480 95 497 112 510 125 c 0
 523 138 540 155 555 155 c 0
 570 155 587 138 600 125 c 0
 613 112 630 95 630 80 c 0
EndSplineSet
EndChar

StartChar: minus
Encoding: 14 8722 14
Width: 720
Flags: W
HStem: 243 64<90 630>
LayerCount: 2
Back
Fore
SplineSet
630 307 m 1
 630 243 l 1
 90 243 l 1
 90 307 l 1
 630 307 l 1
EndSplineSet
EndChar

StartChar: uni2215
Encoding: 15 8725 15
Width: 720
Flags: W
HStem: 525 20G<564 604>
LayerCount: 2
Back
Fore
SplineSet
584 545 m 1
 630 499 l 1
 136 5 l 1
 90 51 l 1
 584 545 l 1
EndSplineSet
EndChar

StartChar: uni2216
Encoding: 16 8726 16
Width: 720
Flags: W
HStem: 525 20G<116 156>
LayerCount: 2
Back
Fore
SplineSet
90 499 m 1
 136 545 l 1
 630 51 l 1
 584 5 l 1
 90 499 l 1
EndSplineSet
EndChar

StartChar: plus
Encoding: 17 43 17
Width: 720
Flags: W
HStem: 243 64<90 328 392 630> 525 20G<328 392>
VStem: 328 64<5 243 307 545>
LayerCount: 2
Back
Fore
SplineSet
328 545 m 1
 392 545 l 1
 392 307 l 1
 630 307 l 1
 630 243 l 1
 392 243 l 1
 392 5 l 1
 328 5 l 1
 328 243 l 1
 90 243 l 1
 90 307 l 1
 328 307 l 1
 328 545 l 1
EndSplineSet
EndChar

StartChar: multiply
Encoding: 18 215 18
Width: 720
Flags: W
HStem: 525 20G<116 156 564 604>
LayerCount: 2
Back
Fore
SplineSet
90 499 m 1
 136 545 l 1
 360 321 l 1
 584 545 l 1
 630 499 l 1
 406 275 l 1
 630 51 l 1
 584 5 l 1
 360 229 l 1
 136 5 l 1
 90 51 l 1
 314 275 l 1
 90 499 l 1
EndSplineSet
EndChar

StartChar: uni2238
Encoding: 19 8760 19
Width: 720
Flags: W
HStem: 243 64<90 630> 411 113<327.426 392.574>
VStem: 304 112<434.003 500.997>
LayerCount: 2
Back
Fore
SplineSet
90 243 m 1
 90 307 l 1
 630 307 l 1
 630 243 l 1
 90 243 l 1
416 467 m 0
 416 456 404 444 394 434 c 0
 384 424 371 411 360 411 c 0
 349 411 336 424 326 434 c 0
 316 444 304 456 304 467 c 0
 304 479 316 491 326 501 c 0
 336 511 349 524 360 524 c 0
 371 524 384 511 394 501 c 0
 404 491 416 479 416 467 c 0
EndSplineSet
EndChar

StartChar: uni2A2A
Encoding: 20 10794 20
Width: 720
Flags: W
HStem: 26 113<327.426 392.574> 243 64<90 630>
VStem: 304 112<49.003 115.997>
LayerCount: 2
Back
Fore
SplineSet
630 307 m 1
 630 243 l 1
 90 243 l 1
 90 307 l 1
 630 307 l 1
416 83 m 0
 416 71 404 59 394 49 c 0
 384 39 371 26 360 26 c 0
 349 26 336 39 326 49 c 0
 316 59 304 71 304 83 c 0
 304 94 316 106 326 116 c 0
 336 126 349 139 360 139 c 0
 371 139 384 126 394 116 c 0
 404 106 416 94 416 83 c 0
EndSplineSet
EndChar

StartChar: divide
Encoding: 21 247 21
Width: 720
Flags: W
HStem: 26 113<327.426 392.574> 243 64<90 630> 411 113<327.426 392.574>
VStem: 304 112<49.003 115.997 434.003 500.997>
CounterMasks: 1 e0
LayerCount: 2
Back
Fore
SplineSet
630 307 m 1
 630 243 l 1
 90 243 l 1
 90 307 l 1
 630 307 l 1
416 467 m 0
 416 456 404 444 394 434 c 0
 384 424 371 411 360 411 c 0
 349 411 336 424 326 434 c 0
 316 444 304 456 304 467 c 0
 304 479 316 491 326 501 c 0
 336 511 349 524 360 524 c 0
 371 524 384 511 394 501 c 0
 404 491 416 479 416 467 c 0
416 83 m 0
 416 71 404 59 394 49 c 0
 384 39 371 26 360 26 c 0
 349 26 336 39 326 49 c 0
 316 59 304 71 304 83 c 0
 304 94 316 106 326 116 c 0
 336 126 349 139 360 139 c 0
 371 139 384 126 394 116 c 0
 404 106 416 94 416 83 c 0
EndSplineSet
EndChar

StartChar: uni2A2B
Encoding: 22 10795 22
Width: 720
Flags: W
HStem: 26 113<509.426 574.447> 243 64<90 630> 411 113<146.419 210.574>
VStem: 122 113<435.419 499.581> 486 112<49.003 115.997>
CounterMasks: 1 e0
LayerCount: 2
Back
Fore
SplineSet
630 307 m 1
 630 243 l 1
 90 243 l 1
 90 307 l 1
 630 307 l 1
235 467 m 0
 235 456 222 444 212 434 c 0
 202 424 189 411 178 411 c 0
 167 411 155 424 145 434 c 0
 134 444 122 456 122 467 c 0
 122 479 134 491 145 501 c 0
 155 511 167 524 178 524 c 0
 189 524 202 511 212 501 c 0
 222 491 235 479 235 467 c 0
598 83 m 0
 598 71 586 59 576 49 c 0
 565 39 553 26 542 26 c 0
 531 26 518 39 508 49 c 0
 498 59 486 71 486 83 c 0
 486 94 498 106 508 116 c 0
 518 126 531 139 542 139 c 0
 553 139 565 126 576 116 c 0
 586 106 598 94 598 83 c 0
EndSplineSet
EndChar

StartChar: uni2A2C
Encoding: 23 10796 23
Width: 720
Flags: W
HStem: 26 113<146.419 210.574> 243 64<90 630> 411 113<509.426 574.447>
VStem: 122 113<50.4192 114.581> 486 112<434.003 500.997>
CounterMasks: 1 e0
LayerCount: 2
Back
Fore
SplineSet
630 307 m 1
 630 243 l 1
 90 243 l 1
 90 307 l 1
 630 307 l 1
598 467 m 0
 598 456 586 444 576 434 c 0
 565 424 553 411 542 411 c 0
 531 411 518 424 508 434 c 0
 498 444 486 456 486 467 c 0
 486 479 498 491 508 501 c 0
 518 511 531 524 542 524 c 0
 553 524 565 511 576 501 c 0
 586 491 598 479 598 467 c 0
235 83 m 0
 235 71 222 59 212 49 c 0
 202 39 189 26 178 26 c 0
 167 26 155 39 145 49 c 0
 134 59 122 71 122 83 c 0
 122 94 134 106 145 116 c 0
 155 126 167 139 178 139 c 0
 189 139 202 126 212 116 c 0
 222 106 235 94 235 83 c 0
EndSplineSet
EndChar

StartChar: uni223A
Encoding: 24 8762 24
Width: 720
Flags: W
HStem: 26 113<146.419 210.574 509.426 574.447> 243 64<90 630> 411 113<146.419 210.574 509.426 574.447>
VStem: 122 113<50.4192 114.581 435.419 499.581> 486 112<49.003 115.997 434.003 500.997>
CounterMasks: 1 e0
LayerCount: 2
Back
Fore
SplineSet
630 307 m 1
 630 243 l 1
 90 243 l 1
 90 307 l 1
 630 307 l 1
235 467 m 0
 235 456 222 444 212 434 c 0
 202 424 189 411 178 411 c 0
 167 411 155 424 145 434 c 0
 134 444 122 456 122 467 c 0
 122 479 134 491 145 501 c 0
 155 511 167 524 178 524 c 0
 189 524 202 511 212 501 c 0
 222 491 235 479 235 467 c 0
598 467 m 0
 598 456 586 444 576 434 c 0
 565 424 553 411 542 411 c 0
 531 411 518 424 508 434 c 0
 498 444 486 456 486 467 c 0
 486 479 498 491 508 501 c 0
 518 511 531 524 542 524 c 0
 553 524 565 511 576 501 c 0
 586 491 598 479 598 467 c 0
235 83 m 0
 235 71 222 59 212 49 c 0
 202 39 189 26 178 26 c 0
 167 26 155 39 145 49 c 0
 134 59 122 71 122 83 c 0
 122 94 134 106 145 116 c 0
 155 126 167 139 178 139 c 0
 189 139 202 126 212 116 c 0
 222 106 235 94 235 83 c 0
598 83 m 0
 598 71 586 59 576 49 c 0
 565 39 553 26 542 26 c 0
 531 26 518 39 508 49 c 0
 498 59 486 71 486 83 c 0
 486 94 498 106 508 116 c 0
 518 126 531 139 542 139 c 0
 553 139 565 126 576 116 c 0
 586 106 598 94 598 83 c 0
EndSplineSet
EndChar

StartChar: plusminus
Encoding: 25 177 25
Width: 720
Flags: W
HStem: -63 64<90 630> 311 64<90 328 392 630>
VStem: 328 64<72 311 375 613>
LayerCount: 2
Back
Fore
SplineSet
328 613 m 1
 392 613 l 1
 392 375 l 1
 630 375 l 1
 630 311 l 1
 392 311 l 1
 392 72 l 1
 328 72 l 1
 328 311 l 1
 90 311 l 1
 90 375 l 1
 328 375 l 1
 328 613 l 1
630 1 m 1
 630 -63 l 1
 90 -63 l 1
 90 1 l 1
 630 1 l 1
EndSplineSet
EndChar

StartChar: uni2213
Encoding: 26 8723 26
Width: 720
Flags: W
HStem: 175 64<90 328 392 630> 549 64<90 630>
VStem: 328 64<-63 175 239 478>
LayerCount: 2
Back
Fore
SplineSet
328 478 m 1
 392 478 l 1
 392 239 l 1
 630 239 l 1
 630 175 l 1
 392 175 l 1
 392 -63 l 1
 328 -63 l 1
 328 175 l 1
 90 175 l 1
 90 239 l 1
 328 239 l 1
 328 478 l 1
630 613 m 1
 630 549 l 1
 90 549 l 1
 90 613 l 1
 630 613 l 1
EndSplineSet
EndChar

StartChar: uni2214
Encoding: 27 8724 27
Width: 720
Flags: W
HStem: 175 64<90 328 392 630> 524 113<327.426 392.574>
VStem: 304 112<547.003 613.997> 328 64<-63 175 239 478>
LayerCount: 2
Back
Fore
SplineSet
328 478 m 1xd0
 392 478 l 1
 392 239 l 1
 630 239 l 1
 630 175 l 1
 392 175 l 1
 392 -63 l 1
 328 -63 l 1
 328 175 l 1
 90 175 l 1
 90 239 l 1
 328 239 l 1
 328 478 l 1xd0
416 581 m 0xe0
 416 569 404 557 394 547 c 0
 384 537 371 524 360 524 c 0
 349 524 336 537 326 547 c 0
 316 557 304 569 304 581 c 0
 304 592 316 604 326 614 c 0
 336 624 349 637 360 637 c 0
 371 637 384 624 394 614 c 0
 404 604 416 592 416 581 c 0xe0
EndSplineSet
EndChar

StartChar: uni2A25
Encoding: 28 10789 28
Width: 720
Flags: W
HStem: -87 113<327.426 392.574> 311 64<90 328 392 630>
VStem: 304 112<-63.997 2.997> 328 64<72 311 375 613>
LayerCount: 2
Back
Fore
SplineSet
328 613 m 1xd0
 392 613 l 1
 392 375 l 1
 630 375 l 1
 630 311 l 1
 392 311 l 1
 392 72 l 1
 328 72 l 1
 328 311 l 1
 90 311 l 1
 90 375 l 1
 328 375 l 1
 328 613 l 1xd0
416 -31 m 0xe0
 416 -42 404 -54 394 -64 c 0
 384 -74 371 -87 360 -87 c 0
 349 -87 336 -74 326 -64 c 0
 316 -54 304 -42 304 -31 c 0
 304 -19 316 -7 326 3 c 0
 336 13 349 26 360 26 c 0
 371 26 384 13 394 3 c 0
 404 -7 416 -19 416 -31 c 0xe0
EndSplineSet
EndChar

StartChar: uni2A30
Encoding: 29 10800 29
Width: 720
Flags: W
HStem: 497 113<327.426 392.574>
VStem: 304 112<520.003 586.997>
LayerCount: 2
Back
Fore
SplineSet
90 432 m 1
 136 477 l 1
 360 253 l 1
 584 477 l 1
 630 432 l 1
 406 208 l 1
 630 -17 l 1
 584 -62 l 1
 360 162 l 1
 136 -62 l 1
 90 -17 l 1
 314 208 l 1
 90 432 l 1
416 554 m 0
 416 542 404 530 394 520 c 0
 384 510 371 497 360 497 c 0
 349 497 336 510 326 520 c 0
 316 530 304 542 304 554 c 0
 304 565 316 577 326 587 c 0
 336 597 349 610 360 610 c 0
 371 610 384 597 394 587 c 0
 404 577 416 565 416 554 c 0
EndSplineSet
EndChar

StartChar: uni2A31
Encoding: 30 10801 30
Width: 720
Flags: W
HStem: -63 64<90 630>
LayerCount: 2
Back
Fore
SplineSet
90 567 m 1
 136 612 l 1
 360 388 l 1
 584 612 l 1
 630 567 l 1
 406 342 l 1
 630 118 l 1
 584 73 l 1
 360 297 l 1
 136 73 l 1
 90 118 l 1
 314 342 l 1
 90 567 l 1
630 1 m 1
 630 -63 l 1
 90 -63 l 1
 90 1 l 1
 630 1 l 1
EndSplineSet
EndChar

StartChar: uni22C7
Encoding: 31 8903 31
Width: 720
Flags: W
HStem: 26 113<327.426 392.574> 243 64<90 282 438 630> 411 113<327.426 392.574> 525 20G<116 156 564 604>
VStem: 304 112<49.003 115.997 434.003 500.997>
LayerCount: 2
Back
Fore
SplineSet
90 499 m 1
 136 545 l 1
 360 321 l 1
 584 545 l 1
 630 499 l 1
 438 307 l 1
 630 307 l 1
 630 243 l 1
 438 243 l 1
 630 51 l 1
 584 5 l 1
 360 229 l 1
 136 5 l 1
 90 51 l 1
 282 243 l 1
 90 243 l 1
 90 307 l 1
 282 307 l 1
 90 499 l 1
416 467 m 0
 416 456 404 444 394 434 c 0
 384 424 371 411 360 411 c 0
 349 411 336 424 326 434 c 0
 316 444 304 456 304 467 c 0
 304 479 316 491 326 501 c 0
 336 511 349 524 360 524 c 0
 371 524 384 511 394 501 c 0
 404 491 416 479 416 467 c 0
416 83 m 0
 416 71 404 59 394 49 c 0
 384 39 371 26 360 26 c 0
 349 26 336 39 326 49 c 0
 316 59 304 71 304 83 c 0
 304 94 316 106 326 116 c 0
 336 126 349 139 360 139 c 0
 371 139 384 126 394 116 c 0
 404 106 416 94 416 83 c 0
EndSplineSet
EndChar

StartChar: logicalnot
Encoding: 32 172 32
Width: 720
Flags: W
HStem: 243 64<90 566>
VStem: 566 64<51 243>
LayerCount: 2
Back
Fore
SplineSet
90 243 m 1
 90 307 l 1
 270 307 450 307 630 307 c 1
 630 222 630 136 630 51 c 1
 566 51 l 1
 566 243 l 1
 90 243 l 1
EndSplineSet
EndChar

StartChar: revlogicalnot
Encoding: 33 8976 33
Width: 720
Flags: W
HStem: 243 64<154 630>
VStem: 90 64<51 243>
LayerCount: 2
Back
Fore
SplineSet
154 243 m 1
 154 51 l 1
 90 51 l 1
 90 136 90 222 90 307 c 1
 270 307 450 307 630 307 c 1
 630 243 l 1
 154 243 l 1
EndSplineSet
EndChar

StartChar: uni2A3C
Encoding: 34 10812 34
Width: 720
Flags: W
HStem: 243 64<90 566>
VStem: 566 64<307 499>
LayerCount: 2
Back
Fore
SplineSet
90 243 m 1
 90 307 l 1
 566 307 l 1
 566 499 l 1
 630 499 l 1
 630 414 630 328 630 243 c 1
 450 243 270 243 90 243 c 1
EndSplineSet
EndChar

StartChar: uni2A3D
Encoding: 35 10813 35
Width: 720
Flags: W
HStem: 243 64<154 630>
VStem: 90 64<307 499>
LayerCount: 2
Back
Fore
SplineSet
630 243 m 1
 450 243 270 243 90 243 c 1
 90 328 90 414 90 499 c 1
 154 499 l 1
 154 307 l 1
 630 307 l 1
 630 243 l 1
EndSplineSet
EndChar

StartChar: uni22CB
Encoding: 36 8907 36
Width: 720
Flags: W
HStem: 525 20G<116 156>
LayerCount: 2
Back
Fore
SplineSet
630 51 m 1
 584 5 l 1
 360 229 l 1
 136 5 l 1
 90 51 l 1
 314 275 l 1
 90 499 l 1
 136 545 l 1
 630 51 l 1
EndSplineSet
EndChar

StartChar: uni22CC
Encoding: 37 8908 37
Width: 720
Flags: W
HStem: 525 20G<564 604>
LayerCount: 2
Back
Fore
SplineSet
584 545 m 1
 630 499 l 1
 406 275 l 1
 630 51 l 1
 584 5 l 1
 360 229 l 1
 136 5 l 1
 90 51 l 1
 584 545 l 1
EndSplineSet
EndChar

StartChar: uni2A32
Encoding: 38 10802 38
Width: 720
Flags: W
HStem: 9 64<203 517> 525 20G<116 156 564 604>
LayerCount: 2
Back
Fore
SplineSet
607 73 m 1
 590 9 l 1
 130 9 l 1
 113 73 l 1
 315 275 l 1
 90 499 l 1
 136 545 l 1
 360 321 l 1
 584 545 l 1
 630 499 l 1
 405 275 l 1
 607 73 l 1
517 73 m 1
 360 230 l 1
 203 73 l 1
 517 73 l 1
EndSplineSet
EndChar

StartChar: uni22CA
Encoding: 39 8906 39
Width: 720
Flags: W
HStem: 525 20G<116 155.911>
VStem: 562 64<118 432>
LayerCount: 2
Back
Fore
SplineSet
562 522 m 1
 626 505 l 1
 626 45 l 1
 562 28 l 1
 360 230 l 1
 136 5 l 1
 90 51 l 1
 314 275 l 1
 90 499 l 1
 136 545 l 1
 360 320 l 1
 562 522 l 1
562 432 m 1
 405 275 l 1
 562 118 l 1
 562 432 l 1
EndSplineSet
EndChar

StartChar: sym005
Encoding: 40 -1 40
Width: 720
Flags: W
HStem: 477 64<203 517>
LayerCount: 2
Back
Fore
SplineSet
113 477 m 1
 130 541 l 1
 590 541 l 1
 607 477 l 1
 405 275 l 1
 630 51 l 1
 584 5 l 1
 360 229 l 1
 136 5 l 1
 90 51 l 1
 315 275 l 1
 113 477 l 1
203 477 m 1
 360 320 l 1
 517 477 l 1
 203 477 l 1
EndSplineSet
EndChar

StartChar: uni22C9
Encoding: 41 8905 41
Width: 720
Flags: W
HStem: 525 20G<564.089 604>
VStem: 94 64<118 432>
LayerCount: 2
Back
Fore
SplineSet
158 28 m 1
 94 45 l 1
 94 505 l 1
 158 522 l 1
 360 320 l 1
 584 545 l 1
 630 499 l 1
 406 275 l 1
 630 51 l 1
 584 5 l 1
 360 230 l 1
 158 28 l 1
158 118 m 1
 315 275 l 1
 158 432 l 1
 158 118 l 1
EndSplineSet
EndChar

StartChar: uni22C8
Encoding: 42 8904 42
Width: 720
Flags: W
VStem: 94 64<118 432> 562 64<118 432>
LayerCount: 2
Back
Fore
SplineSet
158 28 m 1
 94 45 l 1
 94 505 l 1
 158 522 l 1
 360 320 l 1
 562 522 l 1
 626 505 l 1
 626 45 l 1
 562 28 l 1
 360 230 l 1
 158 28 l 1
562 432 m 1
 405 275 l 1
 562 118 l 1
 562 432 l 1
158 118 m 1
 315 275 l 1
 158 432 l 1
 158 118 l 1
EndSplineSet
EndChar

StartChar: uni29D6
Encoding: 43 10710 43
Width: 720
Flags: W
HStem: 9 64<203 517> 477 64<203 517>
LayerCount: 2
Back
Fore
SplineSet
607 73 m 1
 590 9 l 1
 130 9 l 1
 113 73 l 1
 315 275 l 1
 113 477 l 1
 130 541 l 1
 590 541 l 1
 607 477 l 1
 405 275 l 1
 607 73 l 1
203 477 m 1
 360 320 l 1
 517 477 l 1
 203 477 l 1
517 73 m 1
 360 230 l 1
 203 73 l 1
 517 73 l 1
EndSplineSet
EndChar

StartChar: sym006
Encoding: 44 -1 44
Width: 720
Flags: W
HStem: 243 64<337 630>
LayerCount: 2
Back
Fore
SplineSet
130 514 m 1
 199 445 268 376 337 307 c 1
 630 307 l 1
 630 243 l 1
 337 243 l 1
 268 174 199 105 130 36 c 1
 85 81 l 1
 279 275 l 1
 85 469 l 1
 130 514 l 1
EndSplineSet
EndChar

StartChar: sym007
Encoding: 45 -1 45
Width: 720
Flags: W
HStem: 0 21G<146 186 534 574> 525 20G<328 392>
VStem: 328 64<252 545>
LayerCount: 2
Back
Fore
SplineSet
121 45 m 1
 190 114 259 183 328 252 c 1
 328 545 l 1
 392 545 l 1
 392 252 l 1
 461 183 530 114 599 45 c 1
 554 0 l 1
 360 194 l 1
 166 0 l 1
 121 45 l 1
EndSplineSet
EndChar

StartChar: sym008
Encoding: 46 -1 46
Width: 720
Flags: W
HStem: 243 64<90 383>
LayerCount: 2
Back
Fore
SplineSet
590 36 m 1
 521 105 452 174 383 243 c 1
 90 243 l 1
 90 307 l 1
 383 307 l 1
 452 376 521 445 590 514 c 1
 635 469 l 1
 441 275 l 1
 635 81 l 1
 590 36 l 1
EndSplineSet
EndChar

StartChar: sym009
Encoding: 47 -1 47
Width: 720
Flags: W
HStem: 530 20G<146 186 534 574>
VStem: 328 64<5 298>
LayerCount: 2
Back
Fore
SplineSet
599 505 m 1
 530 436 461 367 392 298 c 1
 392 5 l 1
 328 5 l 1
 328 298 l 1
 259 367 190 436 121 505 c 1
 166 550 l 1
 360 356 l 1
 554 550 l 1
 599 505 l 1
EndSplineSet
EndChar

StartChar: logicaland
Encoding: 48 8743 48
Width: 720
Flags: W
HStem: 525 20G<330.604 389.396>
LayerCount: 2
Back
Fore
SplineSet
621 32 m 1
 563 5 l 1
 360 438 l 1
 157 5 l 1
 99 32 l 1
 340 545 l 1
 380 545 l 1
 621 32 l 1
EndSplineSet
EndChar

StartChar: logicalor
Encoding: 49 8744 49
Width: 720
Flags: W
HStem: 525 20G<114.037 166.376 553.624 605.963>
LayerCount: 2
Back
Fore
SplineSet
99 518 m 1
 157 545 l 1
 360 112 l 1
 563 545 l 1
 621 518 l 1
 380 5 l 1
 340 5 l 1
 99 518 l 1
EndSplineSet
EndChar

StartChar: uni27D1
Encoding: 50 10193 50
Width: 720
Flags: W
HStem: 39 112<326.003 393.997> 525 20G<330.604 389.396>
VStem: 304 112<61.003 128.997>
LayerCount: 2
Back
Fore
SplineSet
621 32 m 1
 563 5 l 1
 360 438 l 1
 157 5 l 1
 99 32 l 1
 340 545 l 1
 380 545 l 1
 621 32 l 1
416 95 m 0
 416 84 404 71 394 61 c 0
 384 51 371 39 360 39 c 0
 349 39 336 51 326 61 c 0
 316 71 304 84 304 95 c 0
 304 106 316 119 326 129 c 0
 336 139 349 151 360 151 c 0
 371 151 384 139 394 129 c 0
 404 119 416 106 416 95 c 0
EndSplineSet
EndChar

StartChar: uni27C7
Encoding: 51 10183 51
Width: 720
Flags: W
HStem: 399 112<326.003 393.997> 525 20G<114.037 166.376 553.624 605.963>
VStem: 304 112<421.003 488.997>
LayerCount: 2
Back
Fore
SplineSet
99 518 m 1
 157 545 l 1
 360 112 l 1
 563 545 l 1
 621 518 l 1
 380 5 l 1
 340 5 l 1
 99 518 l 1
416 455 m 0
 416 444 404 431 394 421 c 0
 384 411 371 399 360 399 c 0
 349 399 336 411 326 421 c 0
 316 431 304 444 304 455 c 0
 304 466 316 479 326 489 c 0
 336 499 349 511 360 511 c 0
 371 511 384 499 394 489 c 0
 404 479 416 466 416 455 c 0
EndSplineSet
EndChar

StartChar: uni2A55
Encoding: 52 10837 52
Width: 960
Flags: W
HStem: 525 20G<330.604 389.39 570.61 629.396>
LayerCount: 2
Back
Fore
SplineSet
861 32 m 1
 803 5 l 1
 600 438 l 1
 515 257 l 1
 621 32 l 1
 563 5 l 1
 480 182 l 1
 397 5 l 1
 339 32 l 1
 445 257 l 1
 360 438 l 1
 157 5 l 1
 99 32 l 1
 340 545 l 1
 380 545 l 1
 480 332 l 1
 580 545 l 1
 620 545 l 1
 861 32 l 1
EndSplineSet
EndChar

StartChar: uni2A56
Encoding: 53 10838 53
Width: 960
Flags: W
HStem: 525 20G<114.037 166.376 354.037 406.379 553.621 605.963 793.624 845.963>
LayerCount: 2
Back
Fore
SplineSet
339 518 m 1
 397 545 l 1
 480 368 l 1
 563 545 l 1
 621 518 l 1
 515 293 l 1
 600 112 l 1
 803 545 l 1
 861 518 l 1
 620 5 l 1
 580 5 l 1
 480 218 l 1
 380 5 l 1
 340 5 l 1
 99 518 l 1
 157 545 l 1
 360 112 l 1
 445 293 l 1
 339 518 l 1
EndSplineSet
EndChar

StartChar: uni22CF
Encoding: 54 8911 54
Width: 720
Flags: W
HStem: 525 20G<328 392>
VStem: 328 64<366.9 545>
LayerCount: 2
Back
Fore
SplineSet
360 325 m 1
 319 204 240 95 144 5 c 1
 100 52 l 1
 231 174 328 334 328 513 c 2
 328 545 l 1
 392 545 l 1
 392 513 l 2
 392 334 489 174 620 52 c 1
 576 5 l 1
 480 95 401 204 360 325 c 1
EndSplineSet
EndChar

StartChar: uni22CE
Encoding: 55 8910 55
Width: 720
Flags: W
HStem: 525 20G<125.277 192 528 594.723>
VStem: 328 64<5 183.1>
LayerCount: 2
Back
Fore
SplineSet
360 225 m 1
 401 346 480 455 576 545 c 1
 620 498 l 1
 489 376 392 216 392 37 c 2
 392 5 l 1
 328 5 l 1
 328 37 l 2
 328 216 231 376 100 498 c 1
 144 545 l 1
 240 455 319 346 360 225 c 1
EndSplineSet
EndChar

StartChar: uni22BC
Encoding: 56 8892 56
Width: 720
Flags: W
HStem: 549 64<90 630>
LayerCount: 2
Back
Fore
SplineSet
621 -35 m 1
 563 -63 l 1
 360 370 l 1
 157 -63 l 1
 99 -35 l 1
 340 478 l 1
 380 478 l 1
 621 -35 l 1
90 549 m 1
 90 613 l 1
 630 613 l 1
 630 549 l 1
 90 549 l 1
EndSplineSet
EndChar

StartChar: uni22BB
Encoding: 57 8891 57
Width: 720
Flags: W
HStem: -63 64<90 630>
LayerCount: 2
Back
Fore
SplineSet
99 585 m 1
 157 613 l 1
 360 180 l 1
 563 613 l 1
 621 585 l 1
 380 72 l 1
 340 72 l 1
 99 585 l 1
90 -63 m 1
 90 1 l 1
 630 1 l 1
 630 -63 l 1
 90 -63 l 1
EndSplineSet
EndChar

StartChar: uni2A5E
Encoding: 58 10846 58
Width: 720
Flags: W
HStem: 481 64<90 630> 616 64<90 630>
LayerCount: 2
Back
Fore
SplineSet
621 -103 m 1
 563 -130 l 1
 360 303 l 1
 157 -130 l 1
 99 -103 l 1
 340 410 l 1
 380 410 l 1
 621 -103 l 1
90 481 m 1
 90 545 l 1
 630 545 l 1
 630 481 l 1
 90 481 l 1
90 616 m 1
 90 680 l 1
 630 680 l 1
 630 616 l 1
 90 616 l 1
EndSplineSet
EndChar

StartChar: uni2A63
Encoding: 59 10851 59
Width: 720
Flags: W
HStem: -130 64<90 630> 5 64<90 630>
LayerCount: 2
Back
Fore
SplineSet
99 653 m 1
 157 680 l 1
 360 247 l 1
 563 680 l 1
 621 653 l 1
 380 140 l 1
 340 140 l 1
 99 653 l 1
90 5 m 1
 90 69 l 1
 630 69 l 1
 630 5 l 1
 90 5 l 1
90 -130 m 1
 90 -66 l 1
 630 -66 l 1
 630 -130 l 1
 90 -130 l 1
EndSplineSet
EndChar

StartChar: union
Encoding: 60 8746 60
Width: 720
Flags: W
HStem: 5 64<258.978 461.022> 525 20G<90 154 566 630>
VStem: 90 64<164.552 545> 566 64<164.552 545>
LayerCount: 2
Back
Fore
SplineSet
154 545 m 1
 154 236 l 2
 154 136 253 69 360 69 c 0
 467 69 566 136 566 236 c 2
 566 545 l 1
 630 545 l 1
 630 236 l 2
 630 101 503 5 360 5 c 0
 217 5 90 101 90 236 c 2
 90 545 l 1
 154 545 l 1
EndSplineSet
EndChar

StartChar: intersection
Encoding: 61 8745 61
Width: 720
Flags: W
HStem: 481 64<258.978 461.022>
VStem: 90 64<5 385.448> 566 64<5 385.448>
LayerCount: 2
Back
Fore
SplineSet
566 5 m 1
 566 314 l 2
 566 414 467 481 360 481 c 0
 253 481 154 414 154 314 c 2
 154 5 l 1
 90 5 l 1
 90 314 l 2
 90 449 217 545 360 545 c 0
 503 545 630 449 630 314 c 2
 630 5 l 1
 566 5 l 1
EndSplineSet
EndChar

StartChar: uni22D3
Encoding: 62 8915 62
Width: 900
Flags: W
HStem: -85 64<330.791 569.209> 125 64<378.86 521.14>
VStem: 90 64<137.239 635> 281 64<222.484 635> 555 64<222.484 635> 746 64<137.239 635>
LayerCount: 2
Back
Fore
SplineSet
345 635 m 1
 345 271 l 2
 345 221 396 189 450 189 c 0
 504 189 555 221 555 271 c 2
 555 635 l 1
 619 635 l 1
 619 271 l 2
 619 186 539 125 450 125 c 0
 361 125 281 186 281 271 c 2
 281 635 l 1
 345 635 l 1
154 635 m 1
 154 226 l 2
 154 79 295 -21 450 -21 c 0
 605 -21 746 79 746 226 c 2
 746 635 l 1
 810 635 l 1
 810 226 l 2
 810 44 640 -85 450 -85 c 0
 260 -85 90 44 90 226 c 2
 90 635 l 1
 154 635 l 1
EndSplineSet
EndChar

StartChar: uni22D2
Encoding: 63 8914 63
Width: 900
Flags: W
HStem: 361 64<378.86 521.14> 571 64<330.791 569.209>
VStem: 90 64<-85 412.761> 281 64<-85 327.516> 555 64<-85 327.516> 746 64<-85 412.761>
LayerCount: 2
Back
Fore
SplineSet
555 -85 m 1
 555 279 l 2
 555 329 504 361 450 361 c 0
 396 361 345 329 345 279 c 2
 345 -85 l 1
 281 -85 l 1
 281 279 l 2
 281 364 361 425 450 425 c 0
 539 425 619 364 619 279 c 2
 619 -85 l 1
 555 -85 l 1
746 -85 m 1
 746 324 l 2
 746 471 605 571 450 571 c 0
 295 571 154 471 154 324 c 2
 154 -85 l 1
 90 -85 l 1
 90 324 l 2
 90 506 260 635 450 635 c 0
 640 635 810 506 810 324 c 2
 810 -85 l 1
 746 -85 l 1
EndSplineSet
EndChar

StartChar: uni228D
Encoding: 64 8845 64
Width: 720
Flags: W
HStem: 5 64<258.978 461.022> 309 112<326.003 393.997> 525 20G<90 154 566 630>
VStem: 90 64<164.552 545> 304 112<331.003 398.997> 566 64<164.552 545>
CounterMasks: 1 1c
LayerCount: 2
Back
Fore
SplineSet
154 545 m 1
 154 236 l 2
 154 136 253 69 360 69 c 0
 467 69 566 136 566 236 c 2
 566 545 l 1
 630 545 l 1
 630 236 l 2
 630 101 503 5 360 5 c 0
 217 5 90 101 90 236 c 2
 90 545 l 1
 154 545 l 1
416 365 m 0
 416 354 404 341 394 331 c 0
 384 321 371 309 360 309 c 0
 349 309 336 321 326 331 c 0
 316 341 304 354 304 365 c 0
 304 376 316 389 326 399 c 0
 336 409 349 421 360 421 c 0
 371 421 384 409 394 399 c 0
 404 389 416 376 416 365 c 0
EndSplineSet
EndChar

StartChar: uni2A40
Encoding: 65 10816 65
Width: 720
Flags: W
HStem: 129 112<326.003 393.997> 481 64<258.978 461.022>
VStem: 90 64<5 385.448> 304 112<151.003 218.997> 566 64<5 385.448>
CounterMasks: 1 38
LayerCount: 2
Back
Fore
SplineSet
566 5 m 1
 566 314 l 2
 566 414 467 481 360 481 c 0
 253 481 154 414 154 314 c 2
 154 5 l 1
 90 5 l 1
 90 314 l 2
 90 449 217 545 360 545 c 0
 503 545 630 449 630 314 c 2
 630 5 l 1
 566 5 l 1
416 185 m 0
 416 174 404 161 394 151 c 0
 384 141 371 129 360 129 c 0
 349 129 336 141 326 151 c 0
 316 161 304 174 304 185 c 0
 304 196 316 209 326 219 c 0
 336 229 349 241 360 241 c 0
 371 241 384 229 394 219 c 0
 404 209 416 196 416 185 c 0
EndSplineSet
EndChar

StartChar: uni228E
Encoding: 66 8846 66
Width: 720
Flags: W
HStem: 5 64<258.978 461.022> 333 64<238 328 392 482> 525 20G<90 154 566 630>
VStem: 90 64<164.552 545> 328 64<243 333 397 487> 566 64<164.552 545>
CounterMasks: 1 1c
LayerCount: 2
Back
Fore
SplineSet
154 545 m 1
 154 236 l 2
 154 136 253 69 360 69 c 0
 467 69 566 136 566 236 c 2
 566 545 l 1
 630 545 l 1
 630 236 l 2
 630 101 503 5 360 5 c 0
 217 5 90 101 90 236 c 2
 90 545 l 1
 154 545 l 1
328 487 m 1
 392 487 l 1
 392 397 l 1
 482 397 l 1
 482 333 l 1
 392 333 l 1
 392 243 l 1
 328 243 l 1
 328 333 l 1
 238 333 l 1
 238 397 l 1
 328 397 l 1
 328 487 l 1
EndSplineSet
EndChar

StartChar: sym00A
Encoding: 67 -1 67
Width: 720
Flags: W
HStem: 153 64<238 328 392 482> 481 64<258.978 461.022>
VStem: 90 64<5 385.448> 328 64<63 153 217 307> 566 64<5 385.448>
CounterMasks: 1 38
LayerCount: 2
Back
Fore
SplineSet
566 5 m 1
 566 314 l 2
 566 414 467 481 360 481 c 0
 253 481 154 414 154 314 c 2
 154 5 l 1
 90 5 l 1
 90 314 l 2
 90 449 217 545 360 545 c 0
 503 545 630 449 630 314 c 2
 630 5 l 1
 566 5 l 1
328 307 m 1
 392 307 l 1
 392 217 l 1
 482 217 l 1
 482 153 l 1
 392 153 l 1
 392 63 l 1
 328 63 l 1
 328 153 l 1
 238 153 l 1
 238 217 l 1
 328 217 l 1
 328 307 l 1
EndSplineSet
EndChar

StartChar: uni2294
Encoding: 68 8852 68
Width: 720
Flags: W
HStem: 5 64<154 566> 525 20G<90 154 566 630>
VStem: 90 64<69 545> 566 64<69 545>
LayerCount: 2
Back
Fore
SplineSet
90 545 m 1
 154 545 l 1
 154 69 l 1
 566 69 l 1
 566 545 l 1
 630 545 l 1
 630 5 l 1
 90 5 l 1
 90 545 l 1
EndSplineSet
EndChar

StartChar: uni2293
Encoding: 69 8851 69
Width: 720
Flags: W
HStem: 481 64<154 566>
VStem: 90 64<5 481> 566 64<5 481>
LayerCount: 2
Back
Fore
SplineSet
154 5 m 1
 90 5 l 1
 90 545 l 1
 630 545 l 1
 630 5 l 1
 566 5 l 1
 566 481 l 1
 154 481 l 1
 154 5 l 1
EndSplineSet
EndChar

StartChar: uni2A4F
Encoding: 70 10831 70
Width: 900
Flags: W
HStem: -85 64<154 746> 106 64<332 568>
VStem: 90 64<-21 635> 268 64<170 635> 568 64<170 635> 746 64<-21 635>
LayerCount: 2
Back
Fore
SplineSet
90 635 m 1
 154 635 l 1
 154 -21 l 1
 746 -21 l 1
 746 635 l 1
 810 635 l 1
 810 -85 l 1
 90 -85 l 1
 90 635 l 1
268 635 m 1
 332 635 l 1
 332 170 l 1
 568 170 l 1
 568 635 l 1
 632 635 l 1
 632 106 l 1
 268 106 l 1
 268 635 l 1
EndSplineSet
EndChar

StartChar: uni2A4E
Encoding: 71 10830 71
Width: 900
Flags: W
HStem: 380 64<332 568> 571 64<154 746>
VStem: 90 64<-85 571> 268 64<-85 380> 568 64<-85 380> 746 64<-85 571>
LayerCount: 2
Back
Fore
SplineSet
154 -85 m 1
 90 -85 l 1
 90 635 l 1
 810 635 l 1
 810 -85 l 1
 746 -85 l 1
 746 571 l 1
 154 571 l 1
 154 -85 l 1
332 -85 m 1
 268 -85 l 1
 268 444 l 1
 632 444 l 1
 632 -85 l 1
 568 -85 l 1
 568 380 l 1
 332 380 l 1
 332 -85 l 1
EndSplineSet
EndChar

StartChar: sym00B
Encoding: 72 -1 72
Width: 720
Flags: W
HStem: 5 64<154 566> 309 112<326.003 393.997> 525 20G<90 154 566 630>
VStem: 90 64<69 545> 304 112<331.003 398.997> 566 64<69 545>
CounterMasks: 1 1c
LayerCount: 2
Back
Fore
SplineSet
90 545 m 1
 154 545 l 1
 154 69 l 1
 566 69 l 1
 566 545 l 1
 630 545 l 1
 630 5 l 1
 90 5 l 1
 90 545 l 1
416 365 m 0
 416 354 404 341 394 331 c 0
 384 321 371 309 360 309 c 0
 349 309 336 321 326 331 c 0
 316 341 304 354 304 365 c 0
 304 376 316 389 326 399 c 0
 336 409 349 421 360 421 c 0
 371 421 384 409 394 399 c 0
 404 389 416 376 416 365 c 0
EndSplineSet
EndChar

StartChar: sym00C
Encoding: 73 -1 73
Width: 720
Flags: W
HStem: 129 112<326.003 393.997> 481 64<154 566>
VStem: 90 64<5 481> 304 112<151.003 218.997> 566 64<5 481>
CounterMasks: 1 38
LayerCount: 2
Back
Fore
SplineSet
154 5 m 1
 90 5 l 1
 90 545 l 1
 630 545 l 1
 630 5 l 1
 566 5 l 1
 566 481 l 1
 154 481 l 1
 154 5 l 1
416 185 m 0
 416 174 404 161 394 151 c 0
 384 141 371 129 360 129 c 0
 349 129 336 141 326 151 c 0
 316 161 304 174 304 185 c 0
 304 196 316 209 326 219 c 0
 336 229 349 241 360 241 c 0
 371 241 384 229 394 219 c 0
 404 209 416 196 416 185 c 0
EndSplineSet
EndChar

StartChar: sym00D
Encoding: 74 -1 74
Width: 720
Flags: W
HStem: 5 64<154 566> 333 64<238 328 392 482> 525 20G<90 154 566 630>
VStem: 90 64<69 545> 328 64<243 333 397 487> 566 64<69 545>
CounterMasks: 1 1c
LayerCount: 2
Back
Fore
SplineSet
90 545 m 1
 154 545 l 1
 154 69 l 1
 566 69 l 1
 566 545 l 1
 630 545 l 1
 630 5 l 1
 90 5 l 1
 90 545 l 1
328 487 m 1
 392 487 l 1
 392 397 l 1
 482 397 l 1
 482 333 l 1
 392 333 l 1
 392 243 l 1
 328 243 l 1
 328 333 l 1
 238 333 l 1
 238 397 l 1
 328 397 l 1
 328 487 l 1
EndSplineSet
EndChar

StartChar: sym00E
Encoding: 75 -1 75
Width: 720
Flags: W
HStem: 153 64<238 328 392 482> 481 64<154 566>
VStem: 90 64<5 481> 328 64<63 153 217 307> 566 64<5 481>
CounterMasks: 1 38
LayerCount: 2
Back
Fore
SplineSet
154 5 m 1
 90 5 l 1
 90 545 l 1
 630 545 l 1
 630 5 l 1
 566 5 l 1
 566 481 l 1
 154 481 l 1
 154 5 l 1
328 307 m 1
 392 307 l 1
 392 217 l 1
 482 217 l 1
 482 153 l 1
 392 153 l 1
 392 63 l 1
 328 63 l 1
 328 153 l 1
 238 153 l 1
 238 217 l 1
 328 217 l 1
 328 307 l 1
EndSplineSet
EndChar

StartChar: uni27D3
Encoding: 76 10195 76
Width: 720
Flags: W
HStem: 5 64<90 566> 219 112<326.003 393.997> 525 20G<566 630>
VStem: 304 112<241.003 308.997> 566 64<69 545>
LayerCount: 2
Back
Fore
SplineSet
90 5 m 1
 90 69 l 1
 566 69 l 1
 566 545 l 1
 630 545 l 1
 630 365 630 185 630 5 c 1
 450 5 270 5 90 5 c 1
416 275 m 0
 416 264 404 251 394 241 c 0
 384 231 371 219 360 219 c 0
 349 219 336 231 326 241 c 0
 316 251 304 264 304 275 c 0
 304 286 316 299 326 309 c 0
 336 319 349 331 360 331 c 0
 371 331 384 319 394 309 c 0
 404 299 416 286 416 275 c 0
EndSplineSet
EndChar

StartChar: uni27D4
Encoding: 77 10196 77
Width: 720
Flags: W
HStem: 219 112<326.003 393.997> 481 64<154 630>
VStem: 90 64<5 481> 304 112<241.003 308.997>
LayerCount: 2
Back
Fore
SplineSet
630 545 m 1
 630 481 l 1
 154 481 l 1
 154 5 l 1
 90 5 l 1
 90 185 90 365 90 545 c 1
 270 545 450 545 630 545 c 1
416 275 m 0
 416 264 404 251 394 241 c 0
 384 231 371 219 360 219 c 0
 349 219 336 231 326 241 c 0
 316 251 304 264 304 275 c 0
 304 286 316 299 326 309 c 0
 336 319 349 331 360 331 c 0
 371 331 384 319 394 309 c 0
 404 299 416 286 416 275 c 0
EndSplineSet
EndChar

StartChar: uni25B9
Encoding: 78 9657 78
Width: 636
Flags: W
VStem: 90 64<123 427>
LayerCount: 2
Back
Fore
SplineSet
546 275 m 1
 90 12 l 1
 90 538 l 1
 546 275 l 1
418 275 m 1
 154 427 l 1
 154 123 l 1
 418 275 l 1
EndSplineSet
EndChar

StartChar: uni25B5
Encoding: 79 9653 79
Width: 707
Flags: W
HStem: 47 64<201 506>
LayerCount: 2
Back
Fore
SplineSet
353 503 m 1
 617 47 l 1
 90 47 l 1
 353 503 l 1
353 375 m 1
 201 111 l 1
 506 111 l 1
 353 375 l 1
EndSplineSet
EndChar

StartChar: uni25C3
Encoding: 80 9667 80
Width: 636
Flags: W
VStem: 482 64<123 427>
LayerCount: 2
Back
Fore
SplineSet
90 275 m 1
 546 538 l 1
 546 12 l 1
 90 275 l 1
218 275 m 1
 482 123 l 1
 482 427 l 1
 218 275 l 1
EndSplineSet
EndChar

StartChar: uni25BF
Encoding: 81 9663 81
Width: 707
Flags: W
HStem: 439 64<201 506>
LayerCount: 2
Back
Fore
SplineSet
353 47 m 1
 90 503 l 1
 617 503 l 1
 353 47 l 1
353 175 m 1
 506 439 l 1
 201 439 l 1
 353 175 l 1
EndSplineSet
EndChar

StartChar: uni25B8
Encoding: 82 9656 82
Width: 636
Flags: W
LayerCount: 2
Back
Fore
SplineSet
546 275 m 1
 90 12 l 1
 90 538 l 1
 546 275 l 1
EndSplineSet
EndChar

StartChar: uni25B4
Encoding: 83 9652 83
Width: 707
Flags: W
LayerCount: 2
Back
Fore
SplineSet
353 503 m 1
 617 47 l 1
 90 47 l 1
 353 503 l 1
EndSplineSet
EndChar

StartChar: uni25C2
Encoding: 84 9666 84
Width: 636
Flags: W
LayerCount: 2
Back
Fore
SplineSet
90 275 m 1
 546 538 l 1
 546 12 l 1
 90 275 l 1
EndSplineSet
EndChar

StartChar: uni25BE
Encoding: 85 9662 85
Width: 707
Flags: W
LayerCount: 2
Back
Fore
SplineSet
353 47 m 1
 90 503 l 1
 617 503 l 1
 353 47 l 1
EndSplineSet
EndChar

StartChar: uni25B7
Encoding: 86 9655 86
Width: 839
Flags: W
VStem: 90 64<6 544>
LayerCount: 2
Back
Fore
SplineSet
749 275 m 1
 90 -105 l 1
 90 655 l 1
 749 275 l 1
621 275 m 1
 154 544 l 1
 154 6 l 1
 621 275 l 1
EndSplineSet
EndChar

StartChar: uni25B3
Encoding: 87 9651 87
Width: 940
Flags: W
HStem: -54 64<201 740>
LayerCount: 2
Back
Fore
SplineSet
470 604 m 1
 850 -54 l 1
 90 -54 l 1
 470 604 l 1
470 476 m 1
 201 10 l 1
 740 10 l 1
 470 476 l 1
EndSplineSet
EndChar

StartChar: uni25C1
Encoding: 88 9665 88
Width: 839
Flags: W
VStem: 685 64<6 544>
LayerCount: 2
Back
Fore
SplineSet
90 275 m 1
 749 655 l 1
 749 -105 l 1
 90 275 l 1
218 275 m 1
 685 6 l 1
 685 544 l 1
 218 275 l 1
EndSplineSet
EndChar

StartChar: uni25BD
Encoding: 89 9661 89
Width: 940
Flags: W
HStem: 540 64<201 740>
LayerCount: 2
Back
Fore
SplineSet
470 -54 m 1
 90 604 l 1
 850 604 l 1
 470 -54 l 1
470 74 m 1
 740 540 l 1
 201 540 l 1
 470 74 l 1
EndSplineSet
EndChar

StartChar: uni25B6
Encoding: 90 9654 90
Width: 839
Flags: W
LayerCount: 2
Back
Fore
SplineSet
749 275 m 1
 90 -105 l 1
 90 655 l 1
 749 275 l 1
EndSplineSet
EndChar

StartChar: uni25B2
Encoding: 91 9650 91
Width: 940
Flags: W
LayerCount: 2
Back
Fore
SplineSet
470 604 m 1
 850 -54 l 1
 90 -54 l 1
 470 604 l 1
EndSplineSet
EndChar

StartChar: uni25C0
Encoding: 92 9664 92
Width: 839
Flags: W
LayerCount: 2
Back
Fore
SplineSet
90 275 m 1
 749 655 l 1
 749 -105 l 1
 90 275 l 1
EndSplineSet
EndChar

StartChar: uni25BC
Encoding: 93 9660 93
Width: 940
Flags: W
LayerCount: 2
Back
Fore
SplineSet
470 -54 m 1
 90 604 l 1
 850 604 l 1
 470 -54 l 1
EndSplineSet
EndChar

StartChar: sym00F
Encoding: 94 -1 94
Width: 1226
Flags: W
HStem: -178 64<201 1025>
LayerCount: 2
Back
Fore
SplineSet
613 728 m 1
 1136 -178 l 1
 90 -178 l 1
 613 728 l 1
613 600 m 1
 201 -114 l 1
 1025 -114 l 1
 613 600 l 1
EndSplineSet
EndChar

StartChar: sym010
Encoding: 95 -1 95
Width: 1226
Flags: W
HStem: 664 64<201 1025>
LayerCount: 2
Back
Fore
SplineSet
613 -178 m 1
 90 728 l 1
 1136 728 l 1
 613 -178 l 1
613 -50 m 1
 1025 664 l 1
 201 664 l 1
 613 -50 l 1
EndSplineSet
EndChar

StartChar: openbullet
Encoding: 96 9702 96
Width: 564
Flags: W
HStem: 83 64<210.424 353.576> 403 64<210.424 353.576>
VStem: 90 64<203.424 346.576> 410 64<203.424 346.576>
LayerCount: 2
Back
Fore
SplineSet
474 275 m 0
 474 224 454 175 418 139 c 0
 382 103 333 83 282 83 c 0
 231 83 182 103 146 139 c 0
 110 175 90 224 90 275 c 0
 90 326 110 375 146 411 c 0
 182 447 231 467 282 467 c 0
 333 467 382 447 418 411 c 0
 454 375 474 326 474 275 c 0
282 147 m 0
 353 147 410 204 410 275 c 0
 410 346 353 403 282 403 c 0
 211 403 154 346 154 275 c 0
 154 204 211 147 282 147 c 0
EndSplineSet
EndChar

StartChar: bullet
Encoding: 97 8226 97
Width: 564
Flags: W
HStem: 83 384<193.483 370.517>
VStem: 90 384<186.483 363.517>
LayerCount: 2
Back
Fore
SplineSet
474 275 m 0
 474 224 454 175 418 139 c 0
 382 103 333 83 282 83 c 0
 231 83 182 103 146 139 c 0
 110 175 90 224 90 275 c 0
 90 326 110 375 146 411 c 0
 182 447 231 467 282 467 c 0
 333 467 382 447 418 411 c 0
 454 375 474 326 474 275 c 0
EndSplineSet
EndChar

StartChar: circle
Encoding: 98 9675 98
Width: 780
Flags: W
HStem: -25 64<291.773 488.227> 511 64<291.773 488.227>
VStem: 90 64<176.773 373.227> 626 64<176.773 373.227>
LayerCount: 2
Back
Fore
SplineSet
690 275 m 0
 690 195 658 119 602 63 c 0
 546 7 470 -25 390 -25 c 0
 310 -25 234 7 178 63 c 0
 122 119 90 195 90 275 c 0
 90 355 122 431 178 487 c 0
 234 543 310 575 390 575 c 0
 470 575 546 543 602 487 c 0
 658 431 690 355 690 275 c 0
626 275 m 0
 626 338 601 398 557 442 c 0
 513 486 453 511 390 511 c 0
 327 511 267 486 223 442 c 0
 179 398 154 338 154 275 c 0
 154 212 179 152 223 108 c 0
 267 64 327 39 390 39 c 0
 453 39 513 64 557 108 c 0
 601 152 626 212 626 275 c 0
EndSplineSet
EndChar

StartChar: uni25CF
Encoding: 99 9679 99
Width: 780
Flags: W
HStem: -25 600<278.384 501.616>
VStem: 90 600<163.384 386.616>
LayerCount: 2
Back
Fore
SplineSet
690 275 m 0
 690 195 658 119 602 63 c 0
 546 7 470 -25 390 -25 c 0
 310 -25 234 7 178 63 c 0
 122 119 90 195 90 275 c 0
 90 355 122 431 178 487 c 0
 234 543 310 575 390 575 c 0
 470 575 546 543 602 487 c 0
 658 431 690 355 690 275 c 0
EndSplineSet
EndChar

StartChar: uni2296
Encoding: 100 8854 100
Width: 780
Flags: W
HStem: -25 64<291.773 488.227> 243 64<156 624> 511 64<291.773 488.227>
VStem: 90 66<173.637 243 307 376.363> 624 66<173.637 243 307 376.363>
CounterMasks: 1 e0
LayerCount: 2
Back
Fore
SplineSet
156 307 m 1
 624 307 l 1
 617 358 593 406 557 442 c 0
 513 486 453 511 390 511 c 0
 327 511 267 486 223 442 c 0
 187 406 163 358 156 307 c 1
624 243 m 1
 156 243 l 1
 163 192 187 144 223 108 c 0
 267 64 327 39 390 39 c 0
 453 39 513 64 557 108 c 0
 593 144 617 192 624 243 c 1
690 275 m 0
 690 195 658 119 602 63 c 0
 546 7 470 -25 390 -25 c 0
 310 -25 234 7 178 63 c 0
 122 119 90 195 90 275 c 0
 90 355 122 431 178 487 c 0
 234 543 310 575 390 575 c 0
 470 575 546 543 602 487 c 0
 658 431 690 355 690 275 c 0
EndSplineSet
EndChar

StartChar: uni29B6
Encoding: 101 10678 101
Width: 780
Flags: W
HStem: -25 66<288.637 358 422 491.363> 509 66<288.637 358 422 491.363>
VStem: 90 64<176.773 373.227> 358 64<41 509> 626 64<176.773 373.227>
CounterMasks: 1 38
LayerCount: 2
Back
Fore
SplineSet
358 41 m 1
 358 509 l 1
 307 502 259 478 223 442 c 0
 179 398 154 338 154 275 c 0
 154 212 179 152 223 108 c 0
 259 72 307 48 358 41 c 1
690 275 m 0
 690 195 658 119 602 63 c 0
 546 7 470 -25 390 -25 c 0
 310 -25 234 7 178 63 c 0
 122 119 90 195 90 275 c 0
 90 355 122 431 178 487 c 0
 234 543 310 575 390 575 c 0
 470 575 546 543 602 487 c 0
 658 431 690 355 690 275 c 0
626 275 m 0
 626 338 601 398 557 442 c 0
 521 478 473 502 422 509 c 1
 422 41 l 1
 473 48 521 72 557 108 c 0
 601 152 626 212 626 275 c 0
EndSplineSet
EndChar

StartChar: uni2298
Encoding: 102 8856 102
Width: 780
Flags: W
HStem: -25 64<292.137 488.227> 511 64<291.773 487.863>
VStem: 90 64<177.137 373.227> 626 64<176.773 372.863>
LayerCount: 2
Back
Fore
SplineSet
202 132 m 1
 533 463 l 1
 492 494 442 511 390 511 c 0
 327 511 267 486 223 442 c 0
 179 398 154 338 154 275 c 0
 154 223 171 173 202 132 c 1
247 87 m 1
 288 56 338 39 390 39 c 0
 453 39 513 64 557 108 c 0
 601 152 626 212 626 275 c 0
 626 327 609 377 578 418 c 1
 247 87 l 1
690 275 m 0
 690 195 658 119 602 63 c 0
 546 7 470 -25 390 -25 c 0
 310 -25 234 7 178 63 c 0
 122 119 90 195 90 275 c 0
 90 355 122 431 178 487 c 0
 234 543 310 575 390 575 c 0
 470 575 546 543 602 487 c 0
 658 431 690 355 690 275 c 0
EndSplineSet
EndChar

StartChar: uni29B8
Encoding: 103 10680 103
Width: 780
Flags: W
HStem: -25 64<291.773 487.863> 511 64<292.137 488.227>
VStem: 90 64<176.773 372.863> 626 64<177.137 373.227>
LayerCount: 2
Back
Fore
SplineSet
533 87 m 1
 202 418 l 1
 171 377 154 327 154 275 c 0
 154 212 179 152 223 108 c 0
 267 64 327 39 390 39 c 0
 442 39 492 56 533 87 c 1
690 275 m 0
 690 195 658 119 602 63 c 0
 546 7 470 -25 390 -25 c 0
 310 -25 234 7 178 63 c 0
 122 119 90 195 90 275 c 0
 90 355 122 431 178 487 c 0
 234 543 310 575 390 575 c 0
 470 575 546 543 602 487 c 0
 658 431 690 355 690 275 c 0
626 275 m 0
 626 338 601 398 557 442 c 0
 513 486 453 511 390 511 c 0
 338 511 288 494 247 463 c 1
 578 132 l 1
 609 173 626 223 626 275 c 0
EndSplineSet
EndChar

StartChar: circleplus
Encoding: 104 8853 104
Width: 780
Flags: W
HStem: -25 66<288.815 358 422 491.185> 243 64<156 358 422 624> 509 66<288.815 358 422 491.185>
VStem: 90 66<173.815 243 307 376.185> 358 64<41 243 307 509> 624 66<173.815 243 307 376.185>
CounterMasks: 1 fc
LayerCount: 2
Back
Fore
SplineSet
358 307 m 1
 358 509 l 1
 254 495 170 411 156 307 c 1
 358 307 l 1
422 307 m 1
 624 307 l 1
 610 411 526 495 422 509 c 1
 422 307 l 1
358 243 m 1
 156 243 l 1
 170 139 254 55 358 41 c 1
 358 243 l 1
422 243 m 1
 422 41 l 1
 526 55 610 139 624 243 c 1
 422 243 l 1
690 275 m 0
 690 195 658 119 602 63 c 0
 546 7 470 -25 390 -25 c 0
 310 -25 234 7 178 63 c 0
 122 119 90 195 90 275 c 0
 90 355 122 431 178 487 c 0
 234 543 310 575 390 575 c 0
 470 575 546 543 602 487 c 0
 658 431 690 355 690 275 c 0
EndSplineSet
EndChar

StartChar: circlemultiply
Encoding: 105 8855 105
Width: 780
Flags: W
HStem: -25 64<292.137 487.863> 511 64<292.137 487.863>
VStem: 90 64<177.137 372.863> 626 64<177.137 372.863>
LayerCount: 2
Back
Fore
SplineSet
390 230 m 1
 247 87 l 1
 288 56 338 39 390 39 c 0
 442 39 492 56 533 87 c 1
 390 230 l 1
435 275 m 1
 578 132 l 1
 609 173 626 223 626 275 c 0
 626 327 609 377 578 418 c 1
 435 275 l 1
345 275 m 1
 202 418 l 1
 171 377 154 327 154 275 c 0
 154 223 171 173 202 132 c 1
 345 275 l 1
390 320 m 1
 533 463 l 1
 492 494 442 511 390 511 c 0
 338 511 288 494 247 463 c 1
 390 320 l 1
690 275 m 0
 690 195 658 119 602 63 c 0
 546 7 470 -25 390 -25 c 0
 310 -25 234 7 178 63 c 0
 122 119 90 195 90 275 c 0
 90 355 122 431 178 487 c 0
 234 543 310 575 390 575 c 0
 470 575 546 543 602 487 c 0
 658 431 690 355 690 275 c 0
EndSplineSet
EndChar

StartChar: uni2299
Encoding: 106 8857 106
Width: 780
Flags: W
HStem: -25 64<291.773 488.227> 200 150<353.367 426.633> 511 64<291.773 488.227>
VStem: 90 64<176.773 373.227> 315 150<238.367 311.633> 626 64<176.773 373.227>
CounterMasks: 1 fc
LayerCount: 2
Back
Fore
SplineSet
690 275 m 0
 690 195 658 119 602 63 c 0
 546 7 470 -25 390 -25 c 0
 310 -25 234 7 178 63 c 0
 122 119 90 195 90 275 c 0
 90 355 122 431 178 487 c 0
 234 543 310 575 390 575 c 0
 470 575 546 543 602 487 c 0
 658 431 690 355 690 275 c 0
626 275 m 0
 626 338 601 398 557 442 c 0
 513 486 453 511 390 511 c 0
 327 511 267 486 223 442 c 0
 179 398 154 338 154 275 c 0
 154 212 179 152 223 108 c 0
 267 64 327 39 390 39 c 0
 453 39 513 64 557 108 c 0
 601 152 626 212 626 275 c 0
465 275 m 0
 465 260 448 243 435 230 c 0
 422 217 405 200 390 200 c 0
 375 200 358 217 345 230 c 0
 332 243 315 260 315 275 c 0
 315 290 332 307 345 320 c 0
 358 333 375 350 390 350 c 0
 405 350 422 333 435 320 c 0
 448 307 465 290 465 275 c 0
EndSplineSet
EndChar

StartChar: uni229A
Encoding: 107 8858 107
Width: 780
Flags: W
HStem: -25 64<291.773 488.227> 136 64<338.883 441.117> 350 64<338.883 441.117> 511 64<291.773 488.227>
VStem: 90 64<176.773 373.227> 251 64<223.883 326.117> 465 64<223.883 326.117> 626 64<176.773 373.227>
LayerCount: 2
Back
Fore
SplineSet
690 275 m 0
 690 195 658 119 602 63 c 0
 546 7 470 -25 390 -25 c 0
 310 -25 234 7 178 63 c 0
 122 119 90 195 90 275 c 0
 90 355 122 431 178 487 c 0
 234 543 310 575 390 575 c 0
 470 575 546 543 602 487 c 0
 658 431 690 355 690 275 c 0
626 275 m 0
 626 338 601 398 557 442 c 0
 513 486 453 511 390 511 c 0
 327 511 267 486 223 442 c 0
 179 398 154 338 154 275 c 0
 154 212 179 152 223 108 c 0
 267 64 327 39 390 39 c 0
 453 39 513 64 557 108 c 0
 601 152 626 212 626 275 c 0
390 414 m 0
 466 414 529 351 529 275 c 0
 529 199 466 136 390 136 c 0
 314 136 251 199 251 275 c 0
 251 351 314 414 390 414 c 0
390 200 m 0
 431 200 465 234 465 275 c 0
 465 316 431 350 390 350 c 0
 349 350 315 316 315 275 c 0
 315 234 349 200 390 200 c 0
EndSplineSet
EndChar

StartChar: uni229B
Encoding: 108 8859 108
Width: 780
Flags: W
HStem: -25 67<285.202 350.586 429.414 494.798> 508 67<285.202 350.586 429.414 494.798>
VStem: 90 64<194.394 355.606> 626 64<194.394 355.606>
LayerCount: 2
Back
Fore
SplineSet
414 317 m 1
 572 426 l 1
 537 468 486 498 430 508 c 1
 414 317 l 1
366 317 m 1
 350 508 l 1
 294 498 243 468 208 426 c 1
 366 317 l 1
341 275 m 1
 169 357 l 1
 159 331 154 303 154 275 c 0
 154 247 159 219 169 193 c 1
 341 275 l 1
366 233 m 1
 208 124 l 1
 243 82 294 52 350 42 c 1
 366 233 l 1
414 233 m 1
 430 42 l 1
 486 52 537 82 572 124 c 1
 414 233 l 1
439 275 m 1
 611 193 l 1
 621 219 626 247 626 275 c 0
 626 303 621 331 611 357 c 1
 439 275 l 1
690 275 m 0
 690 195 658 119 602 63 c 0
 546 7 470 -25 390 -25 c 0
 310 -25 234 7 178 63 c 0
 122 119 90 195 90 275 c 0
 90 355 122 431 178 487 c 0
 234 543 310 575 390 575 c 0
 470 575 546 543 602 487 c 0
 658 431 690 355 690 275 c 0
EndSplineSet
EndChar

StartChar: uni229D
Encoding: 109 8861 109
Width: 780
Flags: W
HStem: -25 64<291.773 488.227> 243 64<211 569> 511 64<291.773 488.227>
VStem: 90 64<176.773 373.227> 626 64<176.773 373.227>
CounterMasks: 1 e0
LayerCount: 2
Back
Fore
SplineSet
690 275 m 0
 690 195 658 119 602 63 c 0
 546 7 470 -25 390 -25 c 0
 310 -25 234 7 178 63 c 0
 122 119 90 195 90 275 c 0
 90 355 122 431 178 487 c 0
 234 543 310 575 390 575 c 0
 470 575 546 543 602 487 c 0
 658 431 690 355 690 275 c 0
626 275 m 0
 626 338 601 398 557 442 c 0
 513 486 453 511 390 511 c 0
 327 511 267 486 223 442 c 0
 179 398 154 338 154 275 c 0
 154 212 179 152 223 108 c 0
 267 64 327 39 390 39 c 0
 453 39 513 64 557 108 c 0
 601 152 626 212 626 275 c 0
211 243 m 1
 211 307 l 1
 569 307 l 1
 569 243 l 1
 211 243 l 1
EndSplineSet
EndChar

StartChar: uni229C
Encoding: 110 8860 110
Width: 780
Flags: W
HStem: -25 64<291.773 488.227> 166 64<211 569> 320 64<211 569> 511 64<291.773 488.227>
VStem: 90 64<176.773 373.227> 626 64<176.773 373.227>
LayerCount: 2
Back
Fore
SplineSet
690 275 m 0
 690 195 658 119 602 63 c 0
 546 7 470 -25 390 -25 c 0
 310 -25 234 7 178 63 c 0
 122 119 90 195 90 275 c 0
 90 355 122 431 178 487 c 0
 234 543 310 575 390 575 c 0
 470 575 546 543 602 487 c 0
 658 431 690 355 690 275 c 0
626 275 m 0
 626 338 601 398 557 442 c 0
 513 486 453 511 390 511 c 0
 327 511 267 486 223 442 c 0
 179 398 154 338 154 275 c 0
 154 212 179 152 223 108 c 0
 267 64 327 39 390 39 c 0
 453 39 513 64 557 108 c 0
 601 152 626 212 626 275 c 0
211 320 m 1
 211 384 l 1
 569 384 l 1
 569 320 l 1
 211 320 l 1
211 166 m 1
 211 230 l 1
 569 230 l 1
 569 166 l 1
 211 166 l 1
EndSplineSet
EndChar

StartChar: emptyset
Encoding: 111 8709 111
Width: 780
Flags: W
HStem: -25 64<292.585 488.227> 511 64<291.773 487.415>
VStem: 90 64<177.585 373.227> 626 64<176.773 372.415>
LayerCount: 2
Back
Fore
SplineSet
202 132 m 1
 533 463 l 1
 492 494 442 511 390 511 c 0
 327 511 267 486 223 442 c 0
 179 398 154 338 154 275 c 0
 154 223 171 173 202 132 c 1
247 87 m 1
 288 56 338 39 390 39 c 0
 453 39 513 64 557 108 c 0
 601 152 626 212 626 275 c 0
 626 327 609 377 578 418 c 1
 247 87 l 1
643 573 m 1
 688 528 l 1
 623 463 l 1
 666 410 690 344 690 275 c 0
 690 195 658 119 602 63 c 0
 546 7 470 -25 390 -25 c 0
 321 -25 255 -1 202 42 c 1
 137 -23 l 1
 92 22 l 1
 157 87 l 1
 114 140 90 206 90 275 c 0
 90 355 122 431 178 487 c 0
 234 543 310 575 390 575 c 0
 459 575 525 551 578 508 c 1
 643 573 l 1
EndSplineSet
EndChar

StartChar: uni29B0
Encoding: 112 10672 112
Width: 780
Flags: W
HStem: -25 64<291.773 487.415> 511 64<292.585 488.227>
VStem: 90 64<176.773 372.415> 626 64<177.585 373.227>
LayerCount: 2
Back
Fore
SplineSet
533 87 m 1
 202 418 l 1
 171 377 154 327 154 275 c 0
 154 212 179 152 223 108 c 0
 267 64 327 39 390 39 c 0
 442 39 492 56 533 87 c 1
626 275 m 0
 626 338 601 398 557 442 c 0
 513 486 453 511 390 511 c 0
 338 511 288 494 247 463 c 1
 578 132 l 1
 609 173 626 223 626 275 c 0
688 22 m 1
 643 -23 l 1
 578 42 l 1
 525 -1 459 -25 390 -25 c 0
 310 -25 234 7 178 63 c 0
 122 119 90 195 90 275 c 0
 90 344 114 410 157 463 c 1
 92 528 l 1
 137 573 l 1
 202 508 l 1
 255 551 321 575 390 575 c 0
 470 575 546 543 602 487 c 0
 658 431 690 355 690 275 c 0
 690 206 666 140 623 87 c 1
 688 22 l 1
EndSplineSet
EndChar

StartChar: uni25EF
Encoding: 113 9711 113
Width: 1044
Flags: W
HStem: -157 64<399.599 644.401> 643 64<399.599 644.401>
VStem: 90 64<152.599 397.401> 890 64<152.599 397.401>
LayerCount: 2
Back
Fore
SplineSet
954 275 m 0
 954 160 908 51 827 -30 c 0
 746 -111 637 -157 522 -157 c 0
 407 -157 298 -111 217 -30 c 0
 136 51 90 160 90 275 c 0
 90 390 136 499 217 580 c 0
 298 661 407 707 522 707 c 0
 637 707 746 661 827 580 c 0
 908 499 954 390 954 275 c 0
890 275 m 0
 890 373 851 466 782 535 c 0
 713 604 620 643 522 643 c 0
 424 643 331 604 262 535 c 0
 193 466 154 373 154 275 c 0
 154 177 193 84 262 15 c 0
 331 -54 424 -93 522 -93 c 0
 620 -93 713 -54 782 15 c 0
 851 84 890 177 890 275 c 0
EndSplineSet
EndChar

StartChar: uni2B24
Encoding: 114 11044 114
Width: 1044
Flags: W
HStem: -157 864<391.292 652.708>
VStem: 90 864<144.292 405.708>
LayerCount: 2
Back
Fore
SplineSet
954 275 m 0
 954 160 908 51 827 -30 c 0
 746 -111 637 -157 522 -157 c 0
 407 -157 298 -111 217 -30 c 0
 136 51 90 160 90 275 c 0
 90 390 136 499 217 580 c 0
 298 661 407 707 522 707 c 0
 637 707 746 661 827 580 c 0
 908 499 954 390 954 275 c 0
EndSplineSet
EndChar

StartChar: uni25AB
Encoding: 115 9643 115
Width: 519
Flags: W
HStem: 105 64<154 365> 381 64<154 365>
VStem: 90 64<169 381> 365 64<169 381>
LayerCount: 2
Back
Fore
SplineSet
429 445 m 1
 429 105 l 1
 90 105 l 1
 90 445 l 1
 429 445 l 1
365 381 m 1
 154 381 l 1
 154 169 l 1
 365 169 l 1
 365 381 l 1
EndSplineSet
EndChar

StartChar: uni25AA
Encoding: 116 9642 116
Width: 519
Flags: W
HStem: 105 340<90 429>
VStem: 90 339<105 445>
LayerCount: 2
Back
Fore
SplineSet
429 445 m 1
 429 105 l 1
 90 105 l 1
 90 445 l 1
 429 445 l 1
EndSplineSet
EndChar

StartChar: uni25A1
Encoding: 117 9633 117
Width: 710
Flags: W
HStem: 10 64<154 556> 476 64<154 556>
VStem: 90 64<74 476> 556 64<74 476>
LayerCount: 2
Back
Fore
SplineSet
620 540 m 1
 620 10 l 1
 90 10 l 1
 90 540 l 1
 620 540 l 1
556 476 m 1
 154 476 l 1
 154 74 l 1
 556 74 l 1
 556 476 l 1
EndSplineSet
EndChar

StartChar: uni25A0
Encoding: 118 9632 118
Width: 710
Flags: W
HStem: 10 530<90 620>
VStem: 90 530<10 540>
LayerCount: 2
Back
Fore
SplineSet
620 540 m 1
 620 10 l 1
 90 10 l 1
 90 540 l 1
 620 540 l 1
EndSplineSet
EndChar

StartChar: uni229F
Encoding: 119 8863 119
Width: 710
Flags: W
HStem: 10 64<154 556> 243 64<154 556> 476 64<154 556>
VStem: 90 64<74 243 307 476> 556 64<74 243 307 476>
CounterMasks: 1 e0
LayerCount: 2
Back
Fore
SplineSet
556 243 m 1
 154 243 l 1
 154 74 l 1
 556 74 l 1
 556 243 l 1
620 540 m 1
 620 10 l 1
 90 10 l 1
 90 540 l 1
 620 540 l 1
556 476 m 1
 154 476 l 1
 154 307 l 1
 556 307 l 1
 556 476 l 1
EndSplineSet
EndChar

StartChar: uni25EB
Encoding: 120 9707 120
Width: 710
Flags: W
HStem: 10 64<154 323 387 556> 476 64<154 323 387 556>
VStem: 90 64<74 476> 323 64<74 476> 556 64<74 476>
CounterMasks: 1 38
LayerCount: 2
Back
Fore
SplineSet
323 74 m 1
 323 476 l 1
 154 476 l 1
 154 74 l 1
 323 74 l 1
387 74 m 1
 556 74 l 1
 556 476 l 1
 387 476 l 1
 387 74 l 1
620 540 m 1
 620 10 l 1
 90 10 l 1
 90 540 l 1
 620 540 l 1
EndSplineSet
EndChar

StartChar: uni29C4
Encoding: 121 10692 121
Width: 710
Flags: W
HStem: 10 64<200 556> 476 64<154 511>
VStem: 90 64<119 476> 556 64<74 431>
LayerCount: 2
Back
Fore
SplineSet
154 119 m 1
 511 476 l 1
 154 476 l 1
 154 119 l 1
556 431 m 1
 200 74 l 1
 556 74 l 1
 556 431 l 1
620 540 m 1
 620 10 l 1
 90 10 l 1
 90 540 l 1
 620 540 l 1
EndSplineSet
EndChar

StartChar: uni29C5
Encoding: 122 10693 122
Width: 710
Flags: W
HStem: 10 64<154 511> 476 64<200 556>
VStem: 90 64<74 431> 556 64<119 476>
LayerCount: 2
Back
Fore
SplineSet
511 74 m 1
 154 431 l 1
 154 74 l 1
 511 74 l 1
556 119 m 1
 556 476 l 1
 200 476 l 1
 556 119 l 1
620 540 m 1
 620 10 l 1
 90 10 l 1
 90 540 l 1
 620 540 l 1
EndSplineSet
EndChar

StartChar: uni229E
Encoding: 123 8862 123
Width: 710
Flags: W
HStem: 10 64<154 323 387 556> 243 64<154 323 387 556> 476 64<154 323 387 556>
VStem: 90 64<74 243 307 476> 323 64<74 243 307 476> 556 64<74 243 307 476>
CounterMasks: 1 fc
LayerCount: 2
Back
Fore
SplineSet
323 243 m 1
 154 243 l 1
 154 74 l 1
 323 74 l 1
 323 243 l 1
387 243 m 1
 387 74 l 1
 556 74 l 1
 556 243 l 1
 387 243 l 1
323 307 m 1
 323 476 l 1
 154 476 l 1
 154 307 l 1
 323 307 l 1
387 307 m 1
 556 307 l 1
 556 476 l 1
 387 476 l 1
 387 307 l 1
620 540 m 1
 620 10 l 1
 90 10 l 1
 90 540 l 1
 620 540 l 1
EndSplineSet
EndChar

StartChar: uni22A0
Encoding: 124 8864 124
Width: 710
Flags: W
HStem: 10 64<200 511> 476 64<200 511>
VStem: 90 64<119 431> 556 64<119 431>
LayerCount: 2
Back
Fore
SplineSet
355 230 m 1
 200 74 l 1
 511 74 l 1
 355 230 l 1
400 275 m 1
 556 119 l 1
 556 431 l 1
 400 275 l 1
310 275 m 1
 154 431 l 1
 154 119 l 1
 310 275 l 1
355 320 m 1
 511 476 l 1
 200 476 l 1
 355 320 l 1
620 540 m 1
 620 10 l 1
 90 10 l 1
 90 540 l 1
 620 540 l 1
EndSplineSet
EndChar

StartChar: uni22A1
Encoding: 125 8865 125
Width: 710
Flags: W
HStem: 10 64<154 556> 200 150<318.754 391.633> 476 64<154 556>
VStem: 90 64<74 476> 280 150<238.367 311.633> 556 64<74 476>
CounterMasks: 1 fc
LayerCount: 2
Back
Fore
SplineSet
620 540 m 1
 620 10 l 1
 90 10 l 1
 90 540 l 1
 620 540 l 1
556 476 m 1
 154 476 l 1
 154 74 l 1
 556 74 l 1
 556 476 l 1
430 275 m 0
 430 260 414 243 400 230 c 0
 387 217 370 200 355 200 c 0
 340 200 324 217 310 230 c 0
 297 243 280 260 280 275 c 0
 280 290 297 307 310 320 c 0
 324 333 340 350 355 350 c 0
 370 350 387 333 400 320 c 0
 414 307 430 290 430 275 c 0
EndSplineSet
EndChar

StartChar: uni29C8
Encoding: 126 10696 126
Width: 710
Flags: W
HStem: 10 64<154 556> 156 51<288 423> 343 51<288 423> 476 64<154 556>
VStem: 90 64<74 476> 236 52<207 343> 423 51<207 343> 556 64<74 476>
LayerCount: 2
Back
Fore
SplineSet
620 540 m 1
 620 10 l 1
 90 10 l 1
 90 540 l 1
 620 540 l 1
556 476 m 1
 154 476 l 1
 154 74 l 1
 556 74 l 1
 556 476 l 1
474 394 m 1
 474 156 l 1
 236 156 l 1
 236 394 l 1
 474 394 l 1
423 343 m 1
 288 343 l 1
 288 207 l 1
 423 207 l 1
 423 343 l 1
EndSplineSet
EndChar

StartChar: uni2B1C
Encoding: 127 11036 127
Width: 944
Flags: W
HStem: -107 64<154 790> 593 64<154 790>
VStem: 90 64<-43 593> 790 64<-43 593>
LayerCount: 2
Back
Fore
SplineSet
854 657 m 1
 854 -107 l 1
 90 -107 l 1
 90 657 l 1
 854 657 l 1
790 593 m 1
 154 593 l 1
 154 -43 l 1
 790 -43 l 1
 790 593 l 1
EndSplineSet
EndChar

StartChar: uni2B1B
Encoding: 128 11035 128
Width: 944
Flags: W
HStem: -107 764<90 854>
VStem: 90 764<-107 657>
LayerCount: 2
Back
Fore
SplineSet
854 657 m 1
 854 -107 l 1
 90 -107 l 1
 90 657 l 1
 854 657 l 1
EndSplineSet
EndChar

StartChar: uni22C4
Encoding: 129 8900 129
Width: 660
Flags: W
LayerCount: 2
Back
Fore
SplineSet
330 528 m 1
 583 275 l 1
 330 22 l 1
 77 275 l 1
 330 528 l 1
330 438 m 1
 167 275 l 1
 330 112 l 1
 493 275 l 1
 330 438 l 1
EndSplineSet
EndChar

StartChar: uni2B29
Encoding: 130 11049 130
Width: 660
Flags: W
LayerCount: 2
Back
Fore
SplineSet
330 528 m 1
 583 275 l 1
 330 22 l 1
 77 275 l 1
 330 528 l 1
EndSplineSet
EndChar

StartChar: uni25C7
Encoding: 131 9671 131
Width: 930
Flags: W
LayerCount: 2
Back
Fore
SplineSet
465 663 m 1
 853 275 l 1
 465 -113 l 1
 77 275 l 1
 465 663 l 1
465 573 m 1
 167 275 l 1
 465 -23 l 1
 763 275 l 1
 465 573 l 1
EndSplineSet
EndChar

StartChar: uni25C6
Encoding: 132 9670 132
Width: 930
Flags: W
LayerCount: 2
Back
Fore
SplineSet
465 663 m 1
 853 275 l 1
 465 -113 l 1
 77 275 l 1
 465 663 l 1
EndSplineSet
EndChar

StartChar: sym011
Encoding: 133 -1 133
Width: 930
Flags: W
HStem: 243 64<199 731>
LayerCount: 2
Back
Fore
SplineSet
731 243 m 1
 199 243 l 1
 465 -23 l 1
 731 243 l 1
731 307 m 1
 465 573 l 1
 199 307 l 1
 731 307 l 1
465 663 m 1
 853 275 l 1
 465 -113 l 1
 77 275 l 1
 465 663 l 1
EndSplineSet
EndChar

StartChar: sym012
Encoding: 134 -1 134
Width: 930
Flags: W
VStem: 433 64<9 541>
LayerCount: 2
Back
Fore
SplineSet
433 9 m 1
 433 541 l 1
 167 275 l 1
 433 9 l 1
497 541 m 1
 497 9 l 1
 763 275 l 1
 497 541 l 1
465 663 m 1
 853 275 l 1
 465 -113 l 1
 77 275 l 1
 465 663 l 1
EndSplineSet
EndChar

StartChar: sym013
Encoding: 135 -1 135
Width: 930
Flags: W
LayerCount: 2
Back
Fore
SplineSet
636 402 m 1
 338 104 l 1
 465 -23 l 1
 763 275 l 1
 636 402 l 1
465 663 m 1
 853 275 l 1
 465 -113 l 1
 77 275 l 1
 465 663 l 1
465 573 m 1
 167 275 l 1
 294 148 l 1
 592 446 l 1
 465 573 l 1
EndSplineSet
EndChar

StartChar: sym014
Encoding: 136 -1 136
Width: 930
Flags: W
LayerCount: 2
Back
Fore
SplineSet
592 104 m 1
 294 402 l 1
 167 275 l 1
 465 -23 l 1
 592 104 l 1
636 148 m 1
 763 275 l 1
 465 573 l 1
 338 446 l 1
 636 148 l 1
465 663 m 1
 853 275 l 1
 465 -113 l 1
 77 275 l 1
 465 663 l 1
EndSplineSet
EndChar

StartChar: sym015
Encoding: 137 -1 137
Width: 930
Flags: W
HStem: 243 64<199 433 497 731>
VStem: 433 64<9 243 307 541>
LayerCount: 2
Back
Fore
SplineSet
433 243 m 1
 199 243 l 1
 433 9 l 1
 433 243 l 1
497 243 m 1
 497 9 l 1
 731 243 l 1
 497 243 l 1
433 307 m 1
 433 541 l 1
 199 307 l 1
 433 307 l 1
497 307 m 1
 731 307 l 1
 497 541 l 1
 497 307 l 1
465 663 m 1
 853 275 l 1
 465 -113 l 1
 77 275 l 1
 465 663 l 1
EndSplineSet
EndChar

StartChar: sym016
Encoding: 138 -1 138
Width: 930
Flags: W
LayerCount: 2
Back
Fore
SplineSet
465 230 m 1
 338 104 l 1
 465 -23 l 1
 592 104 l 1
 465 230 l 1
510 275 m 1
 636 148 l 1
 763 275 l 1
 636 402 l 1
 510 275 l 1
420 275 m 1
 294 402 l 1
 167 275 l 1
 294 148 l 1
 420 275 l 1
465 320 m 1
 592 446 l 1
 465 573 l 1
 338 446 l 1
 465 320 l 1
465 663 m 1
 853 275 l 1
 465 -113 l 1
 77 275 l 1
 465 663 l 1
EndSplineSet
EndChar

StartChar: uni27D0
Encoding: 139 10192 139
Width: 930
Flags: W
HStem: 200 150<428.367 501.633>
VStem: 390 150<238.367 311.633>
LayerCount: 2
Back
Fore
SplineSet
465 663 m 1
 853 275 l 1
 465 -113 l 1
 77 275 l 1
 465 663 l 1
465 573 m 1
 167 275 l 1
 465 -23 l 1
 763 275 l 1
 465 573 l 1
540 275 m 0
 540 260 523 243 510 230 c 0
 497 217 480 200 465 200 c 0
 450 200 433 217 420 230 c 0
 407 243 390 260 390 275 c 0
 390 290 407 307 420 320 c 0
 433 333 450 350 465 350 c 0
 480 350 497 333 510 320 c 0
 523 307 540 290 540 275 c 0
EndSplineSet
EndChar

StartChar: sym017
Encoding: 140 -1 140
Width: 930
Flags: W
LayerCount: 2
Back
Fore
SplineSet
465 663 m 1
 853 275 l 1
 465 -113 l 1
 77 275 l 1
 465 663 l 1
465 573 m 1
 167 275 l 1
 465 -23 l 1
 763 275 l 1
 465 573 l 1
465 448 m 1
 638 275 l 1
 465 102 l 1
 292 275 l 1
 465 448 l 1
465 376 m 1
 364 275 l 1
 465 174 l 1
 566 275 l 1
 465 376 l 1
EndSplineSet
EndChar

StartChar: uni2B2B
Encoding: 141 11051 141
Width: 580
Flags: W
LayerCount: 2
Back
Fore
SplineSet
90 275 m 1
 290 595 l 1
 490 275 l 1
 290 -45 l 1
 90 275 l 1
165 275 m 1
 290 76 l 1
 415 275 l 1
 290 474 l 1
 165 275 l 1
EndSplineSet
EndChar

StartChar: uni2B2A
Encoding: 142 11050 142
Width: 580
Flags: W
LayerCount: 2
Back
Fore
SplineSet
90 275 m 1
 290 595 l 1
 490 275 l 1
 290 -45 l 1
 90 275 l 1
EndSplineSet
EndChar

StartChar: lozenge
Encoding: 143 9674 143
Width: 710
Flags: W
LayerCount: 2
Back
Fore
SplineSet
90 275 m 1
 355 699 l 1
 620 275 l 1
 355 -149 l 1
 90 275 l 1
165 275 m 1
 355 -29 l 1
 545 275 l 1
 355 579 l 1
 165 275 l 1
EndSplineSet
EndChar

StartChar: uni29EB
Encoding: 144 10731 144
Width: 710
Flags: W
LayerCount: 2
Back
Fore
SplineSet
90 275 m 1
 355 699 l 1
 620 275 l 1
 355 -149 l 1
 90 275 l 1
EndSplineSet
EndChar

StartChar: uni27E0
Encoding: 145 10208 145
Width: 710
Flags: W
HStem: 243 64<185 525>
LayerCount: 2
Back
Fore
SplineSet
525 243 m 1
 185 243 l 1
 355 -29 l 1
 525 243 l 1
185 307 m 1
 525 307 l 1
 355 579 l 1
 185 307 l 1
90 275 m 1
 355 699 l 1
 620 275 l 1
 355 -149 l 1
 90 275 l 1
EndSplineSet
EndChar

StartChar: uni2B52
Encoding: 146 11090 146
Width: 780
Flags: W
HStem: 302 50<223 312 468 557>
LayerCount: 2
Back
Fore
SplineSet
390 577 m 1
 468 352 l 1
 706 347 l 1
 516 204 l 1
 585 -24 l 1
 390 112 l 1
 195 -24 l 1
 264 204 l 1
 74 347 l 1
 312 352 l 1
 390 577 l 1
390 421 m 1
 349 302 l 1
 223 299 l 1
 323 223 l 1
 287 102 l 1
 390 174 l 1
 493 102 l 1
 457 223 l 1
 557 299 l 1
 431 302 l 1
 390 421 l 1
EndSplineSet
EndChar

StartChar: uni22C6
Encoding: 147 8902 147
Width: 660
Flags: W
LayerCount: 2
Back
Fore
SplineSet
330 522 m 1
 394 338 l 1
 589 334 l 1
 433 217 l 1
 490 30 l 1
 330 141 l 1
 170 30 l 1
 227 217 l 1
 71 334 l 1
 266 338 l 1
 330 522 l 1
EndSplineSet
EndChar

StartChar: uni2B50
Encoding: 148 11088 148
Width: 930
Flags: W
HStem: 307 63<263 369 561 667>
LayerCount: 2
Back
Fore
SplineSet
465 645 m 1
 561 370 l 1
 852 364 l 1
 620 188 l 1
 704 -91 l 1
 465 75 l 1
 226 -91 l 1
 310 188 l 1
 78 364 l 1
 369 370 l 1
 465 645 l 1
465 450 m 1
 415 307 l 1
 263 304 l 1
 384 212 l 1
 340 66 l 1
 465 153 l 1
 590 66 l 1
 546 212 l 1
 667 304 l 1
 515 307 l 1
 465 450 l 1
EndSplineSet
EndChar

StartChar: uni2B51
Encoding: 149 11089 149
Width: 930
Flags: W
LayerCount: 2
Back
Fore
SplineSet
465 645 m 1
 561 370 l 1
 852 364 l 1
 620 188 l 1
 704 -91 l 1
 465 75 l 1
 226 -91 l 1
 310 188 l 1
 78 364 l 1
 369 370 l 1
 465 645 l 1
EndSplineSet
EndChar

StartChar: uni2606
Encoding: 150 9734 150
Width: 1260
Flags: W
HStem: 340 60<271 444.75 815.25 989> 345 63<271 496 764 989>
LayerCount: 2
Back
Fore
SplineSet
630 795 m 1x40
 764 408 l 1x40
 1174 400 l 1
 848 152 l 1
 966 -240 l 1
 630 -6 l 1
 294 -240 l 1
 412 152 l 1
 86 400 l 1x80
 496 408 l 1
 630 795 l 1x40
630 600 m 1
 541 345 l 1x40
 271 340 l 1
 487 176 l 1
 408 -82 l 1
 630 72 l 1
 852 -82 l 1
 773 176 l 1
 989 340 l 1x80
 719 345 l 1
 630 600 l 1
EndSplineSet
EndChar

StartChar: uni2605
Encoding: 151 9733 151
Width: 1260
Flags: W
LayerCount: 2
Back
Fore
SplineSet
630 795 m 1
 764 408 l 1
 1174 400 l 1
 848 152 l 1
 966 -240 l 1
 630 -6 l 1
 294 -240 l 1
 412 152 l 1
 86 400 l 1
 496 408 l 1
 630 795 l 1
EndSplineSet
EndChar

StartChar: asteriskmath
Encoding: 152 8727 152
Width: 660
Flags: W
LayerCount: 2
Back
Fore
SplineSet
380 275 m 1
 559 192 l 1
 517 118 l 1
 355 232 l 1
 373 35 l 1
 287 35 l 1
 305 232 l 1
 143 118 l 1
 101 192 l 1
 280 275 l 1
 101 358 l 1
 143 432 l 1
 305 318 l 1
 287 515 l 1
 373 515 l 1
 355 318 l 1
 517 432 l 1
 559 358 l 1
 380 275 l 1
EndSplineSet
EndChar

StartChar: infinity
Encoding: 153 8734 153
Width: 1044
Flags: W
HStem: 51 64<218.153 353.6 690.4 825.847> 435 64<218.153 353.6 690.4 825.847>
VStem: 90 64<184.992 365.008> 890 64<184.992 365.008>
LayerCount: 2
Back
Fore
SplineSet
566 275 m 1
 625 205 670 115 762 115 c 0
 839 115 890 192 890 275 c 0
 890 358 839 435 762 435 c 0
 670 435 625 345 566 275 c 1
522 322 m 1
 594 401 656 499 762 499 c 0
 874 499 954 393 954 275 c 0
 954 157 874 51 762 51 c 0
 656 51 594 149 522 228 c 1
 450 149 388 51 282 51 c 0
 170 51 90 157 90 275 c 0
 90 393 170 499 282 499 c 0
 388 499 450 401 522 322 c 1
478 275 m 1
 419 345 374 435 282 435 c 0
 205 435 154 358 154 275 c 0
 154 192 205 115 282 115 c 0
 374 115 419 205 478 275 c 1
EndSplineSet
EndChar

StartChar: proportional
Encoding: 154 8733 154
Width: 948
Flags: W
HStem: 51 64<220.645 356.596 702.923 858> 435 64<220.645 356.596 702.923 858>
VStem: 90 64<188.629 361.371>
LayerCount: 2
Back
Fore
SplineSet
478 275 m 1
 420 344 377 435 286 435 c 0
 207 435 154 359 154 275 c 0
 154 191 207 115 286 115 c 0
 377 115 420 206 478 275 c 1
858 499 m 1
 858 435 l 1
 778 435 l 2
 683 435 629 347 566 275 c 1
 629 203 683 115 778 115 c 2
 858 115 l 1
 858 51 l 1
 778 51 l 2
 668 51 598 147 522 228 c 1
 451 149 391 51 286 51 c 0
 172 51 90 156 90 275 c 0
 90 394 172 499 286 499 c 0
 391 499 451 401 522 322 c 1
 598 403 668 499 778 499 c 2
 858 499 l 1
EndSplineSet
EndChar

StartChar: sym018
Encoding: 155 -1 155
Width: 948
Flags: W
HStem: 51 64<90 245.077 591.404 727.355> 435 64<90 245.077 591.404 727.355>
VStem: 794 64<188.629 361.371>
LayerCount: 2
Back
Fore
SplineSet
470 275 m 1
 528 206 571 115 662 115 c 0
 741 115 794 191 794 275 c 0
 794 359 741 435 662 435 c 0
 571 435 528 344 470 275 c 1
90 51 m 1
 90 115 l 1
 170 115 l 2
 265 115 319 203 382 275 c 1
 319 347 265 435 170 435 c 2
 90 435 l 1
 90 499 l 1
 170 499 l 2
 280 499 350 403 426 322 c 1
 497 401 557 499 662 499 c 0
 776 499 858 394 858 275 c 0
 858 156 776 51 662 51 c 0
 557 51 497 149 426 228 c 1
 350 147 280 51 170 51 c 2
 90 51 l 1
EndSplineSet
EndChar

StartChar: sym019
Encoding: 156 -1 156
Width: 852
Flags: W
HStem: 51 64<90 245.077 606.923 762> 435 64<90 245.077 606.923 762>
LayerCount: 2
Back
Fore
SplineSet
90 499 m 1
 170 499 l 2
 280 499 350 403 426 322 c 1
 502 403 572 499 682 499 c 2
 762 499 l 1
 762 435 l 1
 682 435 l 2
 587 435 533 347 470 275 c 1
 533 203 587 115 682 115 c 2
 762 115 l 1
 762 51 l 1
 682 51 l 2
 572 51 502 147 426 228 c 1
 350 147 280 51 170 51 c 2
 90 51 l 1
 90 115 l 1
 170 115 l 2
 265 115 319 203 382 275 c 1
 319 347 265 435 170 435 c 2
 90 435 l 1
 90 499 l 1
EndSplineSet
EndChar

StartChar: uni226C
Encoding: 157 8812 157
Width: 437
Flags: W
VStem: 90 64<157.031 392.969> 282 64<156.827 393.173>
LayerCount: 2
Back
Fore
SplineSet
218 476 m 1
 178 416 154 348 154 275 c 0
 154 202 178 134 218 74 c 1
 258 134 282 202 282 275 c 0
 282 348 258 416 218 476 c 1
334 -50 m 1
 295 -100 l 1
 267 -79 241 -55 218 -30 c 1
 195 -55 169 -79 142 -100 c 1
 102 -50 l 1
 129 -29 154 -5 177 21 c 1
 123 95 90 182 90 275 c 0
 90 368 123 455 177 529 c 1
 154 555 129 579 102 600 c 1
 142 650 l 1
 169 629 195 605 218 580 c 1
 241 605 267 629 295 650 c 1
 334 600 l 1
 307 579 282 556 259 530 c 1
 313 456 346 368 346 275 c 0
 346 182 313 94 259 20 c 1
 282 -6 307 -29 334 -50 c 1
EndSplineSet
EndChar

StartChar: uni22BA
Encoding: 158 8890 158
Width: 565
Flags: W
HStem: -220 21G<250 314> 482 64<90 250 314 475>
VStem: 250 64<-220 482>
LayerCount: 2
Back
Fore
SplineSet
314 -220 m 1
 250 -220 l 1
 250 482 l 1
 90 482 l 1
 90 546 l 1
 475 546 l 1
 475 482 l 1
 314 482 l 1
 314 -220 l 1
EndSplineSet
EndChar

StartChar: uni2240
Encoding: 159 8768 159
Width: 372
Flags: W
HStem: 525 20G<169.415 209.5>
VStem: 90 64<90.9058 213.939> 218 64<336.061 459.094>
LayerCount: 2
Back
Fore
SplineSet
152 504 m 1
 186 545 l 1
 233 505 282 460 282 399 c 0
 282 342 249 293 209 252 c 0
 180 224 154 191 154 151 c 0
 154 107 187 74 221 46 c 1
 186 5 l 1
 139 45 90 90 90 151 c 0
 90 208 123 257 164 298 c 0
 192 326 218 359 218 399 c 0
 218 443 185 476 152 504 c 1
EndSplineSet
EndChar

StartChar: angle
Encoding: 160 8736 160
Width: 720
Flags: W
HStem: 5 64<162 630>
LayerCount: 2
Back
Fore
SplineSet
630 69 m 1
 630 5 l 1
 95 5 l 1
 76 69 l 1
 498 537 l 1
 546 494 l 1
 162 69 l 1
 630 69 l 1
EndSplineSet
EndChar

StartChar: uni29A3
Encoding: 161 10659 161
Width: 720
Flags: W
HStem: 5 64<90 558>
LayerCount: 2
Back
Fore
SplineSet
90 69 m 1
 558 69 l 1
 174 494 l 1
 222 537 l 1
 644 69 l 1
 625 5 l 1
 90 5 l 1
 90 69 l 1
EndSplineSet
EndChar

StartChar: uni2221
Encoding: 162 8737 162
Width: 720
Flags: W
HStem: 5 64<162 416 478.813 630>
VStem: 416 65<69 158.4>
LayerCount: 2
Back
Fore
SplineSet
416 69 m 1
 409 140 381 206 333 258 c 1
 162 69 l 1
 416 69 l 1
630 69 m 1
 630 5 l 1
 95 5 l 1
 76 69 l 1
 498 537 l 1
 546 494 l 1
 376 306 l 1
 437 242 474 158 481 69 c 1
 630 69 l 1
EndSplineSet
EndChar

StartChar: uni299B
Encoding: 163 10651 163
Width: 720
Flags: W
HStem: 5 64<90 241.187 304 558>
VStem: 239 65<69 158.4>
LayerCount: 2
Back
Fore
SplineSet
387 258 m 1
 339 206 311 140 304 69 c 1
 558 69 l 1
 387 258 l 1
344 306 m 1
 174 494 l 1
 222 537 l 1
 644 69 l 1
 625 5 l 1
 90 5 l 1
 90 69 l 1
 239 69 l 1
 246 158 283 242 344 306 c 1
EndSplineSet
EndChar

StartChar: uni2222
Encoding: 164 8738 164
Width: 720
Flags: W
VStem: 468 64<176.289 373.711>
LayerCount: 2
Back
Fore
SplineSet
439 161 m 1
 459 196 468 236 468 275 c 0
 468 314 459 354 439 389 c 1
 197 275 l 1
 439 161 l 1
603 536 m 1
 630 478 l 1
 497 416 l 1
 520 372 532 323 532 275 c 0
 532 227 520 178 497 134 c 1
 630 72 l 1
 603 14 l 1
 90 255 l 1
 90 295 l 1
 603 536 l 1
EndSplineSet
EndChar

StartChar: uni29A1
Encoding: 165 10657 165
Width: 720
Flags: W
HStem: 384 63<262.141 457.859> 525 20G<114.037 166.323 553.677 605.963>
LayerCount: 2
Back
Fore
SplineSet
474 354 m 1
 439 374 399 384 360 384 c 0
 321 384 281 374 246 354 c 1
 360 112 l 1
 474 354 l 1
99 518 m 1
 157 545 l 1
 219 412 l 1
 263 435 312 447 360 447 c 0
 408 447 457 435 501 412 c 1
 563 545 l 1
 621 518 l 1
 380 5 l 1
 340 5 l 1
 99 518 l 1
EndSplineSet
EndChar

StartChar: uni29A0
Encoding: 166 10656 166
Width: 720
Flags: W
VStem: 188 64<176.289 373.711>
LayerCount: 2
Back
Fore
SplineSet
281 389 m 1
 261 354 252 314 252 275 c 0
 252 236 261 196 281 161 c 1
 523 275 l 1
 281 389 l 1
117 14 m 1
 90 72 l 1
 223 134 l 1
 200 178 188 227 188 275 c 0
 188 323 200 372 223 416 c 1
 90 478 l 1
 117 536 l 1
 630 295 l 1
 630 255 l 1
 117 14 l 1
EndSplineSet
EndChar

StartChar: sym01A
Encoding: 167 -1 167
Width: 720
Flags: W
HStem: 103 63<262.141 457.859> 525 20G<330.604 389.396>
LayerCount: 2
Back
Fore
SplineSet
246 196 m 1
 281 176 321 166 360 166 c 0
 399 166 439 176 474 196 c 1
 360 438 l 1
 246 196 l 1
621 32 m 1
 563 5 l 1
 501 138 l 1
 457 115 408 103 360 103 c 0
 312 103 263 115 219 138 c 1
 157 5 l 1
 99 32 l 1
 340 545 l 1
 380 545 l 1
 621 32 l 1
EndSplineSet
EndChar

StartChar: uni221F
Encoding: 168 8735 168
Width: 720
Flags: W
HStem: 5 64<154 630> 525 20G<90 154>
VStem: 90 64<69 545>
LayerCount: 2
Back
Fore
SplineSet
90 545 m 1
 154 545 l 1
 154 69 l 1
 630 69 l 1
 630 5 l 1
 450 5 270 5 90 5 c 1
 90 185 90 365 90 545 c 1
EndSplineSet
EndChar

StartChar: uni22BE
Encoding: 169 8894 169
Width: 720
Flags: W
HStem: 5 64<154 376 440 630> 291 64<154 245.747> 525 20G<90 154>
VStem: 90 64<69 291 355 545> 376 64<69 160.747>
LayerCount: 2
Back
Fore
SplineSet
376 69 m 1
 376 191 276 291 154 291 c 1
 154 69 l 1
 376 69 l 1
90 545 m 1
 154 545 l 1
 154 355 l 1
 312 355 440 227 440 69 c 1
 630 69 l 1
 630 5 l 1
 450 5 270 5 90 5 c 1
 90 185 90 365 90 545 c 1
EndSplineSet
EndChar

StartChar: uni299C
Encoding: 170 10652 170
Width: 720
Flags: W
HStem: 5 64<154 328 392 630> 243 64<154 328> 525 20G<90 154>
VStem: 90 64<69 243 307 545> 328 64<69 243>
LayerCount: 2
Back
Fore
SplineSet
328 243 m 1
 154 243 l 1
 154 69 l 1
 328 69 l 1
 328 243 l 1
90 545 m 1
 154 545 l 1
 154 307 l 1
 233 307 313 307 392 307 c 1
 392 228 392 148 392 69 c 1
 630 69 l 1
 630 5 l 1
 450 5 270 5 90 5 c 1
 90 185 90 365 90 545 c 1
EndSplineSet
EndChar

StartChar: uni299D
Encoding: 171 10653 171
Width: 720
Flags: W
HStem: 5 64<154 376 440 630> 118 75<212.737 269.823> 291 64<154 245.747> 525 20G<90 154>
VStem: 90 64<69 291 355 545> 204 75<126.862 184.581> 376 64<69 160.747>
LayerCount: 2
Back
Fore
SplineSet
376 69 m 1
 376 191 276 291 154 291 c 1
 154 69 l 1
 376 69 l 1
90 545 m 1
 154 545 l 1
 154 355 l 1
 312 355 440 227 440 69 c 1
 630 69 l 1
 630 5 l 1
 450 5 270 5 90 5 c 1
 90 185 90 365 90 545 c 1
279 156 m 0
 279 149 270 140 264 133 c 0
 257 127 249 118 241 118 c 0
 234 118 225 127 219 133 c 0
 212 140 204 149 204 156 c 0
 204 163 212 172 219 178 c 0
 225 185 234 193 241 193 c 0
 249 193 257 185 264 178 c 0
 270 172 279 163 279 156 c 0
EndSplineSet
EndChar

StartChar: minute
Encoding: 172 8242 172
Width: 244
Flags: W
VStem: 60 184
LayerCount: 2
Back
Fore
SplineSet
244 603 m 1
 145 67 l 1
 60 67 l 1
 120 603 l 1
 244 603 l 1
EndSplineSet
EndChar

StartChar: uni2035
Encoding: 173 8245 173
Width: 244
Flags: W
VStem: 0 184
LayerCount: 2
Back
Fore
SplineSet
0 603 m 1
 124 603 l 1
 184 67 l 1
 99 67 l 1
 0 603 l 1
EndSplineSet
EndChar

StartChar: product.small
Encoding: 174 -1 174
Width: 720
Flags: W
HStem: 5 39<97 144.458 257.836 306 414 462.164 575.542 623> 481 64<245 475> 505 40<92 147.564 572.436 628>
VStem: 157 88<58.6557 480.526> 475 88<58.6557 480.526>
LayerCount: 2
Back
Fore
SplineSet
97 5 m 1xd8
 90 44 l 1
 119 52 157 62 157 79 c 2
 157 471 l 2
 157 488 120 498 92 505 c 1
 90 545 l 1
 630 545 l 1
 628 505 l 1xb8
 600 498 563 488 563 471 c 2
 563 79 l 2
 563 62 601 52 630 44 c 1
 623 5 l 1
 414 5 l 1
 407 44 l 1
 436 52 475 62 475 79 c 2
 475 481 l 1
 245 481 l 1
 245 79 l 2
 245 62 284 52 313 44 c 1
 306 5 l 1
 97 5 l 1xd8
EndSplineSet
EndChar

StartChar: product.sf.small
Encoding: 175 -1 175
Width: 720
Flags: W
HStem: 460 85<90 161 246 474 559 630>
VStem: 161 85<5 460> 474 85<5 460>
LayerCount: 2
Back
Fore
SplineSet
161 5 m 1
 161 460 l 1
 90 460 l 1
 90 545 l 1
 630 545 l 1
 630 460 l 1
 559 460 l 1
 559 5 l 1
 474 5 l 1
 474 460 l 1
 246 460 l 1
 246 5 l 1
 161 5 l 1
EndSplineSet
EndChar

StartChar: uni2A3F
Encoding: 176 10815 176
Width: 720
Flags: W
HStem: 5 64<245 475> 5 40<92 147.564 572.436 628> 506 39<97 144.458 257.836 306 414 462.164 575.542 623>
VStem: 157 88<69.4736 491.344> 475 88<69.4736 491.344>
LayerCount: 2
Back
Fore
SplineSet
97 545 m 1x78
 306 545 l 1
 313 506 l 1
 284 498 245 488 245 471 c 2
 245 69 l 1
 475 69 l 1xb8
 475 471 l 2
 475 488 436 498 407 506 c 1
 414 545 l 1
 623 545 l 1
 630 506 l 1
 601 498 563 488 563 471 c 2
 563 79 l 2
 563 62 600 52 628 45 c 1
 630 5 l 1
 90 5 l 1
 92 45 l 1
 120 52 157 62 157 79 c 2
 157 471 l 2
 157 488 119 498 90 506 c 1
 97 545 l 1x78
EndSplineSet
EndChar

StartChar: uni2A3F.sf
Encoding: 177 -1 177
Width: 720
Flags: W
HStem: 5 85<90 161 246 474 559 630> 525 20G<161 246 474 559>
VStem: 161 85<90 545> 474 85<90 545>
LayerCount: 2
Back
Fore
SplineSet
161 545 m 1
 246 545 l 1
 246 90 l 1
 474 90 l 1
 474 545 l 1
 559 545 l 1
 559 90 l 1
 630 90 l 1
 630 5 l 1
 90 5 l 1
 90 90 l 1
 161 90 l 1
 161 545 l 1
EndSplineSet
EndChar

StartChar: integral.small
Encoding: 178 -1 178
Width: 482
Flags: W
HStem: 0 71<127 183.284> 684 70<292.835 354.484>
VStem: 198 85<83.1262 676.219>
LayerCount: 2
Back
Fore
SplineSet
373 749 m 1
 355 679 l 1
 344 683 333 684 323 684 c 0
 290 684 283 643 283 606 c 2
 283 153 l 2
 283 68 215 0 131 -0 c 0
 130 0 128 0 127 0 c 1
 117 71 l 1
 150 71 l 2
 185 71 198 113 198 153 c 2
 198 606 l 2
 198 687 260 754 338 754 c 0
 339 754 340 754 341 754 c 0
 352 754 363 752 373 749 c 1
EndSplineSet
EndChar

StartChar: uni2713
Encoding: 179 10003 179
Width: 904
Flags: W
HStem: 0 21G<226.346 362.5> 734 20G<792 813.81>
LayerCount: 2
Back
Fore
SplineSet
90 254 m 1
 164 296 l 1
 279 99 l 1
 391 333 509 571 708 738 c 0
 727 754 774 754 810 754 c 1
 814 733 l 1
 791 721 769 706 749 689 c 0
 536 511 423 249 302 0 c 1
 238 0 l 1
 90 254 l 1
EndSplineSet
EndChar

StartChar: uni21AF
Encoding: 180 8623 180
Width: 604
Flags: W
HStem: 530 20G<439.625 504.893>
LayerCount: 2
Back
Fore
SplineSet
185 -104 m 1
 101 84 l 1
 160 110 l 1
 199 22 l 1
 362 443 l 1
 150 386 l 1
 374 942 l 1
 464 910 l 1
 276 486 l 1
 514 550 l 1
 264 1 l 1
 348 38 l 1
 374 -21 l 1
 185 -104 l 1
EndSplineSet
EndChar

StartChar: uni2662
Encoding: 181 9826 181
Width: 780
Flags: W
HStem: 0 21G<345 435> 687 20G<345 435>
LayerCount: 2
Back
Fore
SplineSet
390 0 m 1
 300 126 200 245 90 354 c 1
 200 462 300 581 390 707 c 1
 480 581 580 462 690 354 c 1
 580 245 480 126 390 0 c 1
390 99 m 1
 454 190 527 275 606 354 c 1
 527 432 454 517 390 608 c 1
 326 517 253 432 174 354 c 1
 253 275 326 190 390 99 c 1
EndSplineSet
EndChar

StartChar: diamond
Encoding: 182 9830 182
Width: 780
Flags: W
HStem: 0 21G<345 435> 687 20G<345 435>
LayerCount: 2
Back
Fore
SplineSet
390 0 m 1
 300 126 200 245 90 354 c 1
 200 462 300 581 390 707 c 1
 480 581 580 462 690 354 c 1
 580 245 480 126 390 0 c 1
EndSplineSet
EndChar

StartChar: uni2661
Encoding: 183 9825 183
Width: 840
Flags: W
HStem: 0 21G<358.5 481.5> 643 64<197.605 320.916 519.084 642.395>
VStem: 90 64<417.845 597.791> 686 64<417.845 597.791>
LayerCount: 2
Back
Fore
SplineSet
420 0 m 1
 297 176 90 312 90 530 c 0
 90 627 165 707 260 707 c 0
 323 707 375 664 420 619 c 1
 465 664 517 707 580 707 c 0
 675 707 750 627 750 530 c 0
 750 312 543 176 420 0 c 1
420 98 m 1
 538 233 686 351 686 530 c 0
 686 591 640 643 580 643 c 0
 534 643 498 607 465 573 c 2
 420 528 l 1
 375 573 l 2
 342 607 306 643 260 643 c 0
 200 643 154 591 154 530 c 0
 154 351 302 233 420 98 c 1
EndSplineSet
EndChar

StartChar: heart
Encoding: 184 9829 184
Width: 840
Flags: W
HStem: 0 21G<358.5 481.5> 687 20G<212.5 291.5 548.5 627.5>
VStem: 90 660<415.219 614.034>
LayerCount: 2
Back
Fore
SplineSet
420 0 m 1
 297 176 90 312 90 530 c 0
 90 627 165 707 260 707 c 0
 323 707 375 664 420 619 c 1
 465 664 517 707 580 707 c 0
 675 707 750 627 750 530 c 0
 750 312 543 176 420 0 c 1
EndSplineSet
EndChar

StartChar: spade
Encoding: 185 9824 185
Width: 780
Flags: W
HStem: 0 21G<300 480> 687 20G<345.5 434.5>
VStem: 89 602<194.534 376.681>
LayerCount: 2
Back
Fore
SplineSet
552 117 m 0
 505 117 471 142 450 178 c 1
 480 0 l 1
 300 0 l 1
 330 178 l 1
 309 142 275 117 228 117 c 0
 148 117 89 193 89 284 c 0
 89 464 301 553 390 707 c 1
 479 553 691 464 691 284 c 0
 691 193 631 117 552 117 c 0
EndSplineSet
EndChar

StartChar: club
Encoding: 186 9827 186
Width: 840
Flags: W
HStem: 0 21G<330 510> 687 20G<398 442>
VStem: 90 660<216.294 375.497> 255 330<459.358 623.497>
LayerCount: 2
Back
Fore
SplineSet
255 129 m 0xd0
 165 129 90 205 90 294 c 0xe0
 90 338 107 380 138 411 c 0
 169 442 211 459 255 459 c 0
 263 459 270 458 278 457 c 1
 263 482 255 512 255 542 c 0
 255 586 272 628 303 659 c 0
 334 690 376 707 420 707 c 0
 464 707 506 690 537 659 c 0
 568 628 585 586 585 542 c 0
 585 512 577 482 562 457 c 1
 570 458 577 459 585 459 c 0xd0
 629 459 671 442 702 411 c 0
 733 380 750 338 750 294 c 0xe0
 750 205 675 129 585 129 c 0
 549 129 514 141 485 163 c 1
 510 0 l 1
 330 0 l 1
 355 163 l 1
 326 141 291 129 255 129 c 0xd0
EndSplineSet
EndChar

StartChar: uni2720
Encoding: 187 10016 187
Width: 930
Flags: W
HStem: 243 64<401 433 497 529>
VStem: 433 64<211 243 307 339>
LayerCount: 2
Back
Fore
SplineSet
653 650 m 1
 497 339 l 1
 497 307 l 1
 529 307 l 1
 840 463 l 1
 840 87 l 1
 529 243 l 1
 497 243 l 1
 497 211 l 1
 653 -100 l 1
 278 -100 l 1
 433 211 l 1
 433 243 l 1
 401 243 l 1
 90 87 l 1
 90 463 l 1
 401 307 l 1
 433 307 l 1
 433 339 l 1
 278 650 l 1
 653 650 l 1
EndSplineSet
EndChar

StartChar: uni2721
Encoding: 188 10017 188
Width: 930
Flags: W
HStem: 59 51<179 310 399 531 620 751> 440 51<179 310 399 531 620 751> 688 20G<453.479 476.521>
LayerCount: 2
Back
Fore
SplineSet
310 110 m 1
 245 224 l 1
 179 110 l 1
 310 110 l 1
685 224 m 1
 620 110 l 1
 751 110 l 1
 685 224 l 1
531 491 m 1
 465 606 l 1
 399 491 l 1
 531 491 l 1
656 275 m 1
 561 440 l 1
 369 440 l 1
 274 275 l 1
 369 110 l 1
 561 110 l 1
 656 275 l 1
685 326 m 1
 751 440 l 1
 620 440 l 1
 685 326 l 1
310 440 m 1
 179 440 l 1
 245 326 l 1
 310 440 l 1
465 -158 m 1
 340 59 l 1
 90 59 l 1
 215 275 l 1
 90 491 l 1
 340 491 l 1
 465 708 l 1
 590 491 l 1
 840 491 l 1
 715 275 l 1
 840 59 l 1
 590 59 l 1
 465 -158 l 1
465 -56 m 1
 531 59 l 1
 399 59 l 1
 465 -56 l 1
EndSplineSet
EndChar

StartChar: uni2314
Encoding: 189 8980 189
Width: 720
Flags: W
HStem: 479 64<233.886 486.114>
LayerCount: 2
Back
Fore
SplineSet
537 435 m 1
 482 464 421 479 360 479 c 0
 299 479 238 464 183 435 c 1
 360 105 l 1
 537 435 l 1
567 491 m 0
 586 481 604 471 623 461 c 1
 379 5 l 1
 341 5 l 1
 97 461 l 1
 116 471 134 481 153 491 c 0
 217 525 289 543 360 543 c 0
 431 543 503 525 567 491 c 0
EndSplineSet
EndChar

StartChar: universal
Encoding: 190 8704 190
Width: 780
Flags: W
HStem: 0 21G<325.211 454.789> 392 64<275 505> 687 20G<92 174.773 605.227 688>
LayerCount: 2
Back
Fore
SplineSet
505 392 m 1
 275 392 l 1
 390 53 l 1
 505 392 l 1
92 707 m 1
 168 707 l 1
 253 456 l 1
 527 456 l 1
 612 707 l 1
 688 707 l 1
 448 0 l 1
 332 0 l 1
 92 707 l 1
EndSplineSet
EndChar

StartChar: existential
Encoding: 191 8707 191
Width: 660
Flags: W
HStem: 0 64<90 490> 322 64<145 490> 643 64<90 490>
VStem: 490 80<64 322 386 643>
LayerCount: 2
Back
Fore
SplineSet
90 0 m 1
 90 64 l 1
 490 64 l 1
 490 322 l 1
 145 322 l 1
 145 386 l 1
 490 386 l 1
 490 643 l 1
 90 643 l 1
 90 707 l 1
 250 707 410 707 570 707 c 1
 570 0 l 1
 410 0 250 0 90 0 c 1
EndSplineSet
EndChar

StartChar: uni2204
Encoding: 192 8708 192
Width: 660
Flags: W
HStem: 0 64<90 185 262 490> 322 64<145 272 349 490> 643 64<90 358 435 490>
VStem: 490 80<64 322 386 643>
LayerCount: 2
Back
Fore
SplineSet
349 386 m 1
 490 386 l 1
 490 643 l 1
 418 643 l 1
 349 386 l 1
262 64 m 1
 490 64 l 1
 490 322 l 1
 332 322 l 1
 262 64 l 1
411 842 m 1
 467 827 l 1
 435 707 l 1
 480 707 525 707 570 707 c 1
 570 0 l 1
 462 0 353 0 245 0 c 1
 209 -135 l 1
 153 -120 l 1
 185 0 l 1
 90 0 l 1
 90 64 l 1
 202 64 l 1
 272 322 l 1
 145 322 l 1
 145 386 l 1
 289 386 l 1
 358 643 l 1
 90 643 l 1
 90 707 l 1
 375 707 l 1
 411 842 l 1
EndSplineSet
EndChar

StartChar: uni2132
Encoding: 193 8498 193
Width: 660
Flags: W
HStem: 0 64<90 490> 322 64<145 490> 687 20G<490 570>
VStem: 490 80<64 322 386 707>
LayerCount: 2
Back
Fore
SplineSet
90 0 m 1
 90 64 l 1
 490 64 l 1
 490 322 l 1
 145 322 l 1
 145 386 l 1
 490 386 l 1
 490 707 l 1
 570 707 l 1
 570 471 570 236 570 0 c 1
 410 0 250 0 90 0 c 1
EndSplineSet
EndChar

StartChar: uni2141
Encoding: 194 8513 194
Width: 780
Flags: W
HStem: -8 80<224.153 434.968> 268 64<170 330> 556 21G<122.061 161.5> 627 80<216.898 432.499>
VStem: 90 80<109.976 268> 610 80<245.225 452.807>
LayerCount: 2
Back
Fore
SplineSet
610 354 m 0
 610 506 480 627 322 627 c 0
 254 627 187 601 136 556 c 1
 90 622 l 1
 155 677 237 707 322 707 c 0
 525 707 690 550 690 354 c 0
 690 154 529 -8 330 -8 c 0
 241 -8 156 25 90 85 c 1
 90 332 l 1
 330 332 l 1
 330 268 l 1
 170 268 l 1
 170 123 l 1
 217 90 273 72 330 72 c 0
 485 72 610 198 610 354 c 0
EndSplineSet
EndChar

StartChar: uni2201
Encoding: 195 8705 195
Width: 600
Flags: W
HStem: 0 80<227.057 372.943> 627 80<227.057 372.943>
VStem: 90 80<132.965 574.035> 430 80<132.965 197 510 574.035>
LayerCount: 2
Back
Fore
SplineSet
510 510 m 1
 430 510 l 1
 430 577 370 627 300 627 c 0
 230 627 170 577 170 510 c 2
 170 197 l 2
 170 130 230 80 300 80 c 0
 370 80 430 130 430 197 c 1
 510 197 l 1
 510 86 414 0 300 0 c 0
 186 0 90 86 90 197 c 2
 90 510 l 2
 90 621 186 707 300 707 c 0
 414 707 510 621 510 510 c 1
EndSplineSet
EndChar

StartChar: uni266D
Encoding: 196 9837 196
Width: 544
Flags: W
HStem: 482 64<210.501 327.24> 734 20G<90 154>
VStem: 90 64<91 430.54 497 754> 369 85<282.566 436.719>
LayerCount: 2
Back
Fore
SplineSet
154 406 m 1
 154 91 l 1
 255 162 369 239 369 361 c 0
 369 424 330 482 272 482 c 0
 223 482 186 444 154 406 c 1
90 754 m 1
 154 754 l 1
 154 497 l 1
 188 526 227 546 272 546 c 0
 373 546 454 463 454 361 c 0
 454 223 248 79 90 -32 c 1
 90 754 l 1
EndSplineSet
EndChar

StartChar: uni266E
Encoding: 197 9838 197
Width: 544
Flags: W
HStem: -220 21G<390 454> 0 21G<90 164.074> 526 20G<379.926 454> 734 20G<90 154>
VStem: 90 64<113 369 465 754> 390 64<-220 81 177 433>
LayerCount: 2
Back
Fore
SplineSet
390 81 m 1
 90 0 l 1
 90 754 l 1
 154 754 l 1
 154 465 l 1
 454 546 l 1
 454 -220 l 1
 390 -220 l 1
 390 81 l 1
390 177 m 1
 390 433 l 1
 154 369 l 1
 154 113 l 1
 390 177 l 1
EndSplineSet
EndChar

StartChar: uni266F
Encoding: 198 9839 198
Width: 544
Flags: W
HStem: -220 21G<149 213> 0 21G<90 149> 526 20G<395 454> 734 20G<331 395>
VStem: 149 64<-220 16 129 368 481 688> 331 64<-154 65 178 417 530 754>
LayerCount: 2
Back
Fore
SplineSet
331 161 m 1
 331 417 l 1
 213 385 l 1
 213 129 l 1
 331 161 l 1
395 -154 m 1
 331 -154 l 1
 331 65 l 1
 213 33 l 1
 213 -220 l 1
 149 -220 l 1
 149 16 l 1
 90 0 l 1
 90 96 l 1
 149 112 l 1
 149 368 l 1
 90 352 l 1
 90 448 l 1
 149 464 l 1
 149 688 l 1
 213 688 l 1
 213 481 l 1
 331 513 l 1
 331 754 l 1
 395 754 l 1
 395 530 l 1
 454 546 l 1
 454 450 l 1
 395 434 l 1
 395 178 l 1
 454 194 l 1
 454 98 l 1
 395 82 l 1
 395 -154 l 1
EndSplineSet
EndChar

StartChar: aleph
Encoding: 199 8501 199
Width: 784
Flags: W
HStem: 0 21G<90 186> 688 20G<609 694>
VStem: 90 96<0 221.498> 609 85<548.06 706>
LayerCount: 2
Back
Fore
SplineSet
186 0 m 1
 90 0 l 1
 90 170 120 343 219 479 c 1
 165 543 119 612 90 691 c 1
 180 723 l 1
 237 567 359 452 473 332 c 1
 562 435 609 568 609 706 c 1
 694 708 l 1
 694 547 633 393 527 273 c 1
 596 195 658 113 694 15 c 1
 614 -15 l 1
 550 160 402 283 274 418 c 1
 196 298 186 146 186 0 c 1
EndSplineSet
EndChar

StartChar: uni2136
Encoding: 200 8502 200
Width: 784
Flags: W
HStem: 0 93<102 539 619 682> 614 93<162 489.758>
VStem: 539 80<93 568.17>
LayerCount: 2
Back
Fore
SplineSet
162 707 m 1
 395 707 l 2
 563 707 619 642 619 471 c 2
 619 93 l 1
 706 93 l 1
 682 0 l 1
 78 0 l 1
 102 93 l 1
 539 93 l 1
 539 471 l 2
 539 577 501 614 395 614 c 2
 138 614 l 1
 162 707 l 1
EndSplineSet
EndChar

StartChar: uni2137
Encoding: 201 8503 201
Width: 604
Flags: W
HStem: 0 84<97 202.622>
LayerCount: 2
Back
Fore
SplineSet
97 84 m 1
 143 84 l 2
 194 84 213 110 232 144 c 2
 349 346 l 1
 344 388 339 430 333 471 c 0
 327 514 315 558 278 579 c 2
 172 640 l 1
 220 723 l 1
 326 662 l 2
 390 625 402 545 413 471 c 0
 435 312 451 149 514 0 c 1
 429 0 l 1
 396 78 378 160 364 244 c 1
 287 112 l 2
 254 54 229 0 143 0 c 2
 83 0 l 1
 97 84 l 1
EndSplineSet
EndChar

StartChar: uni2138
Encoding: 202 8504 202
Width: 724
Flags: W
HStem: 0 21G<445 525> 614 93<102 445 525 622>
VStem: 445 80<0 614>
LayerCount: 2
Back
Fore
SplineSet
102 707 m 1
 646 707 l 1
 622 614 l 1
 525 614 l 1
 525 0 l 1
 445 0 l 1
 445 614 l 1
 78 614 l 1
 102 707 l 1
EndSplineSet
EndChar

StartChar: weierstrass
Encoding: 203 8472 203
Width: 668
Flags: W
HStem: -220 64<72.5584 143.153> 0 64<313.723 436.205> 455 64<359.996 510.282> 526 20G<172.5 197.273>
VStem: -8 64<-140.443 54.2966> 163 84<-125.603 8.067> 527 86<240.371 438.113>
LayerCount: 2
Back
Fore
SplineSet
85 81 m 1
 71 36 56 -15 56 -69 c 0
 56 -118 71 -156 117 -156 c 0
 127 -156 135 -146 142 -136 c 0
 155 -115 163 -92 163 -64 c 0
 163 -51 161 -39 157 -27 c 0
 144 16 112 47 85 81 c 1
527 380 m 0
 527 426 502 455 461 455 c 0
 316 455 199 337 127 186 c 1
 151 130 202 92 228 37 c 0
 240 14 247 -12 247 -39 c 0
 247 -50 246 -62 243 -74 c 0
 235 -111 218 -148 189 -177 c 0
 165 -202 134 -220 103 -220 c 0
 26 -220 -8 -154 -8 -72 c 0
 -8 -49 -5 -24 0 0 c 0
 11 50 26 99 45 147 c 1
 34 175 29 207 29 239 c 0
 29 267 33 296 39 325 c 0
 50 379 70 433 103 481 c 0
 125 514 155 546 190 546 c 1
 210 491 l 1
 188 491 173 467 161 445 c 0
 141 410 129 372 121 335 c 0
 117 317 115 299 114 281 c 1
 202 419 328 519 474 519 c 0
 566 519 613 429 613 334 c 0
 613 309 610 284 605 259 c 0
 591 194 561 129 512 76 c 0
 471 32 417 0 364 0 c 0
 340 0 316 5 296 15 c 1
 320 78 l 1
 337 69 357 64 378 64 c 0
 410 64 443 84 463 114 c 0
 485 146 499 210 509 259 c 0
 518 298 527 346 527 380 c 0
EndSplineSet
EndChar
